<?xml version="1.0" encoding="UTF-8"?>
<svg width="777px" height="777px" viewBox="0 0 777 777" version="1.1" xmlns="http://www.w3.org/2000/svg" xmlns:xlink="http://www.w3.org/1999/xlink">
    <!-- Generator: Sketch 52.5 (67469) - http://www.bohemiancoding.com/sketch -->
    <title>noun_geometry_1485084</title>
    <desc>Created with Sketch.</desc>
    <g id="Page-1" stroke="none" stroke-width="1" fill="none" fill-rule="evenodd">
        <g id="noun_geometry_1485084" fill="#FFFFFF">
            <path d="M388,70 C395,60 401,52 409,44 C402,39 396,35 388,32 C381,35 374,39 368,44 C375,52 382,60 388,70 Z M361,23 C352,21 343,21 333,22 C340,25 345,28 351,31 C354,28 357,25 361,23 Z M548,112 C558,107 568,103 578,101 C575,93 571,86 567,79 C559,79 551,79 542,80 C545,90 547,101 548,112 Z M600,98 C606,97 612,98 619,99 C612,93 603,89 595,86 C597,90 598,94 600,98 Z M662,115 C693,134 712,165 717,198 C744,220 761,252 762,288 C780,320 781,357 768,388 C781,420 780,456 762,488 C761,525 744,557 717,578 C712,612 693,643 662,662 C643,693 612,712 578,717 C557,744 525,761 488,762 C456,780 420,781 388,768 C357,781 320,780 288,762 C252,761 220,744 198,717 C165,712 134,693 115,662 C83,643 64,612 59,578 C33,557 15,525 15,488 C-3,456 -4,420 8,388 C-4,357 -3,320 15,288 C15,252 33,220 59,198 C64,165 83,134 115,115 C134,83 165,64 198,59 C220,33 252,15 288,15 C320,-3 357,-4 388,8 C420,-4 456,-3 488,15 C525,15 557,33 578,59 C612,64 643,83 662,115 Z M719,229 C718,234 718,238 717,242 C722,245 728,249 733,253 C729,244 724,237 719,229 Z M711,264 C708,270 705,277 702,283 C696,292 690,301 683,309 C693,313 703,318 712,323 C719,327 725,331 730,335 C736,324 740,310 740,294 C732,280 722,270 711,264 Z M667,327 C641,352 609,372 576,388 C609,404 641,424 667,450 C679,446 691,441 702,435 C707,432 712,428 717,424 C704,411 686,400 662,388 C686,377 704,366 717,352 C712,349 707,345 702,342 C691,336 679,331 667,327 Z M551,400 C535,407 520,413 503,419 C514,432 525,446 535,459 C574,463 610,463 643,456 C618,434 586,416 551,400 Z M482,427 C478,428 473,430 469,431 L470,436 L466,437 C467,441 468,446 468,450 C481,452 493,454 505,456 C498,446 490,437 482,427 Z M369,462 L366,463 C367,464 367,465 367,467 C368,466 369,465 370,464 L369,462 Z M345,469 L341,470 L340,466 C335,467 331,468 327,468 C324,481 322,493 321,505 C330,498 340,490 350,482 C348,478 347,473 345,469 Z M335,445 L334,442 L332,442 C332,443 331,444 331,446 C332,445 334,445 335,445 Z M311,340 C310,335 309,331 308,327 C296,324 283,322 271,321 C279,330 287,340 295,350 C299,348 303,347 308,345 L306,341 L311,340 Z M304,304 C301,287 299,270 297,253 C265,231 234,213 202,202 C213,234 231,265 253,297 C270,299 287,301 304,304 Z M294,226 C292,189 293,151 302,116 C293,107 283,100 272,94 C266,90 261,88 255,86 C250,104 249,125 251,151 C230,136 211,126 193,122 C192,128 191,134 191,140 C191,153 193,165 195,178 C231,187 264,205 294,226 Z M309,94 C313,83 318,74 323,64 C327,58 331,52 335,47 C324,40 310,37 294,36 C280,45 270,55 264,66 C270,68 277,71 283,75 C292,80 301,87 309,94 Z M524,44 C528,49 531,54 534,60 C539,59 543,59 547,58 C540,52 532,48 524,44 Z M525,151 C547,136 566,126 584,122 C585,128 585,134 585,140 C585,153 584,165 581,178 C546,187 513,205 482,226 C485,189 484,151 474,116 C484,107 494,100 505,94 C510,90 516,88 522,86 C527,104 527,125 525,151 Z M605,119 C618,119 632,123 646,131 C654,145 657,158 658,172 C651,170 644,170 636,170 C626,170 615,171 604,173 C606,162 607,151 607,140 C607,133 606,126 605,119 Z M678,158 C683,165 688,173 691,182 C687,180 683,178 679,177 C679,171 679,164 678,158 Z M697,210 C698,218 698,226 696,234 C686,231 676,230 664,229 C669,219 673,209 676,199 C683,202 691,205 697,210 Z M691,255 C689,261 686,266 683,272 C677,283 669,293 661,302 C625,293 588,292 551,294 C571,264 589,231 599,195 C612,193 624,191 636,191 C643,191 649,192 655,193 C651,211 641,230 626,251 C652,249 673,250 691,255 Z M643,320 C618,342 586,360 551,377 C535,370 520,363 503,357 C514,344 525,331 535,317 C574,314 610,314 643,320 Z M523,388 C512,393 500,397 489,402 C486,398 483,395 480,392 L483,388 L480,385 C483,382 486,378 489,375 C500,379 512,384 523,388 Z M467,409 C465,410 464,410 463,410 L462,408 L464,406 C465,407 466,408 467,409 Z M411,427 C407,428 403,429 400,431 C396,431 392,432 388,433 C385,432 381,431 377,431 C373,429 370,428 366,427 C363,425 360,422 357,419 C355,416 352,414 350,411 C348,407 347,403 346,400 C345,396 344,392 344,388 C344,385 345,381 346,377 C347,373 348,370 350,366 C352,363 355,360 357,357 C360,355 363,352 366,350 C370,348 373,347 377,346 C381,345 385,344 388,344 C392,344 396,345 400,346 C403,347 407,348 411,350 C414,352 416,355 419,357 C422,360 425,363 427,366 C428,370 429,373 431,377 C431,381 432,385 433,388 C432,392 431,396 431,400 C429,403 428,407 427,411 C425,414 422,416 419,419 C416,422 414,425 411,427 Z M332,335 C332,334 331,332 331,331 C332,331 334,332 335,332 L334,334 L332,335 Z M327,308 C324,296 322,283 321,271 C330,279 340,287 350,295 C348,299 347,303 345,308 L341,306 L340,311 C335,310 331,309 327,308 Z M317,242 C314,203 314,167 320,134 C342,159 360,190 377,226 C370,241 363,257 357,273 C344,262 331,252 317,242 Z M327,109 C331,97 336,86 342,75 C345,69 349,64 352,60 C366,72 377,91 388,114 C400,91 411,72 424,60 C428,64 432,69 435,75 C441,86 446,97 450,109 C424,135 404,168 388,200 C372,168 352,135 327,109 Z M416,23 C425,21 434,21 443,22 C437,25 431,28 426,31 C423,28 419,25 416,23 Z M483,36 C496,45 506,55 513,66 C507,68 500,71 494,75 C484,80 476,87 467,94 C464,83 459,74 454,64 C450,58 446,52 441,47 C453,40 467,37 483,36 Z M754,416 C751,419 749,423 746,426 C749,431 752,437 754,443 C755,434 755,425 754,416 Z M730,441 C725,446 719,450 712,454 C703,459 693,464 683,467 C690,476 696,484 702,494 C705,500 708,507 711,513 C722,506 732,496 740,483 C740,467 736,453 730,441 Z M661,474 C625,484 588,485 551,482 C571,513 589,546 599,581 C612,584 624,585 636,585 C643,585 649,585 655,584 C651,566 641,547 626,525 C652,527 673,527 691,522 C689,516 686,510 683,505 C677,494 669,484 661,474 Z M523,480 C506,478 489,475 473,473 C475,489 478,506 480,523 C511,546 543,564 574,574 C564,543 546,511 523,480 Z M450,468 C446,468 441,467 437,466 L436,470 L431,469 C430,473 428,478 427,482 C437,490 446,498 456,505 C454,493 452,481 450,468 Z M311,437 L306,436 L308,431 C303,430 299,428 295,427 C287,437 279,446 271,456 C283,454 296,452 308,450 C309,446 310,441 311,437 Z M314,410 L314,408 L313,406 C312,407 311,408 310,409 C311,410 313,410 314,410 Z M754,333 C755,343 755,352 754,361 C751,357 749,354 746,351 C749,345 752,340 754,333 Z M745,388 C742,396 737,402 732,409 C725,401 716,395 707,388 C716,382 725,375 732,368 C737,374 742,381 745,388 Z M446,446 C444,445 443,445 442,445 L442,442 L445,442 C445,443 445,444 446,446 Z M366,314 C367,313 367,311 367,310 C368,311 369,312 370,313 L369,314 L366,314 Z M375,288 C379,276 384,265 388,253 C393,265 397,276 402,288 C398,291 395,294 392,297 L388,294 L385,297 C382,294 378,291 375,288 Z M400,226 C416,190 435,159 456,134 C463,167 463,203 459,242 C446,252 432,262 419,273 C413,257 407,241 400,226 Z M691,595 C687,597 683,598 679,600 C679,606 679,612 678,619 C683,612 688,603 691,595 Z M658,605 C651,606 644,607 636,607 C626,607 615,606 604,604 C606,615 607,626 607,636 C607,644 606,651 605,658 C618,657 632,654 646,646 C654,632 657,618 658,605 Z M581,599 C546,589 513,571 482,551 C485,588 484,625 474,661 C484,669 494,677 505,683 C510,686 516,689 522,691 C527,673 527,652 525,626 C547,641 566,651 584,655 C585,649 585,643 585,636 C585,624 584,612 581,599 Z M459,535 C446,525 432,514 419,503 C413,520 407,535 400,551 C416,586 434,618 456,643 C463,610 463,574 459,535 Z M402,489 C398,486 395,483 392,480 L388,483 L385,480 C382,483 378,486 375,489 C379,500 384,512 388,523 C393,512 397,500 402,489 Z M297,392 L294,388 L297,385 C294,382 291,378 288,375 C276,379 265,384 253,388 C265,393 276,397 288,402 C291,398 294,395 297,392 Z M313,370 L314,369 L314,366 C313,367 311,367 310,367 C311,368 312,369 313,370 Z M733,524 C729,532 724,540 719,547 C718,543 718,539 717,534 C722,531 728,528 733,524 Z M697,567 C691,571 683,575 676,578 C673,568 669,558 664,548 C676,547 686,545 696,542 C698,551 698,559 697,567 Z M409,467 C408,466 407,465 406,464 L408,462 L410,463 C410,464 410,465 409,467 Z M406,313 C407,312 408,311 409,310 C410,311 410,313 410,314 L408,314 L406,313 Z M427,295 C437,287 446,279 456,271 C454,283 452,296 450,308 C446,309 441,310 437,311 L436,306 L431,308 C430,303 428,299 427,295 Z M480,253 C511,231 543,213 574,202 C564,234 546,265 523,297 C506,299 489,301 473,304 C475,287 478,270 480,253 Z M547,719 C543,718 539,718 534,717 C531,722 528,728 524,733 C532,729 540,724 547,719 Z M513,711 C507,708 500,705 494,702 C484,696 476,690 467,683 C464,693 459,703 454,712 C450,719 446,725 441,730 C453,736 467,740 483,740 C496,732 506,722 513,711 Z M450,667 C424,641 404,609 388,576 C372,609 352,641 327,667 C331,679 336,691 342,702 C345,707 349,712 352,717 C366,704 377,686 388,662 C400,686 411,704 424,717 C428,712 432,707 435,702 C441,691 446,679 450,667 Z M377,551 C370,535 363,520 357,503 C344,514 331,525 317,535 C314,574 314,610 320,643 C342,618 360,586 377,551 Z M619,678 C612,683 603,688 595,691 C597,687 598,683 600,679 C606,679 612,679 619,678 Z M567,697 C559,698 551,698 542,696 C545,686 547,676 548,664 C558,669 568,673 578,676 C575,683 571,691 567,697 Z M442,332 C443,332 444,331 446,331 C445,332 445,334 445,335 L442,334 L442,332 Z M468,327 C481,324 493,322 505,321 C498,330 490,340 482,350 C478,348 473,347 469,345 L470,341 L466,340 C467,335 468,331 468,327 Z M361,754 C357,751 354,749 351,746 C345,749 340,752 333,754 C343,755 352,755 361,754 Z M335,730 C331,725 327,719 323,712 C318,703 313,693 309,683 C301,690 292,696 283,702 C277,705 270,708 264,711 C270,722 280,732 294,740 C310,740 324,736 335,730 Z M302,661 C293,625 292,588 294,551 C264,571 231,589 195,599 C193,612 191,624 191,636 C191,643 192,649 193,655 C211,651 230,641 251,626 C249,652 250,673 255,691 C261,689 266,686 272,683 C283,677 293,669 302,661 Z M297,523 C299,506 301,489 304,473 C287,475 270,478 253,480 C231,511 213,543 202,574 C234,564 265,546 297,523 Z M443,754 C434,755 425,755 416,754 C419,751 423,749 426,746 C431,749 437,752 443,754 Z M388,745 C381,742 374,737 368,732 C375,725 382,716 388,707 C395,716 401,725 409,732 C402,737 396,742 388,745 Z M463,366 C464,367 465,367 467,367 C466,368 465,369 464,370 L462,369 L463,366 Z M182,691 C180,687 178,683 177,679 C171,679 164,679 158,678 C165,683 173,688 182,691 Z M172,658 C170,651 170,644 170,636 C170,626 171,615 173,604 C162,606 151,607 140,607 C133,607 126,606 119,605 C119,618 123,632 131,646 C145,654 158,657 172,658 Z M178,581 C187,546 205,513 226,482 C189,485 151,484 116,474 C107,484 100,494 94,505 C90,510 88,516 86,522 C104,527 125,527 151,525 C136,547 126,566 122,584 C128,585 134,585 140,585 C153,585 165,584 178,581 Z M242,459 C252,446 262,432 273,419 C257,413 241,407 226,400 C190,416 159,434 134,456 C167,463 203,463 242,459 Z M253,733 C244,729 237,724 229,719 C234,718 238,718 242,717 C245,722 249,728 253,733 Z M210,697 C205,691 202,683 199,676 C209,673 219,669 229,664 C230,676 231,686 234,696 C226,698 218,698 210,697 Z M58,547 C59,543 59,539 60,534 C54,531 49,528 44,524 C48,532 52,540 58,547 Z M66,513 C68,507 71,500 75,494 C80,484 87,476 94,467 C83,464 74,459 64,454 C58,450 52,446 47,441 C40,453 37,467 36,483 C45,496 55,506 66,513 Z M109,450 C135,424 168,404 200,388 C168,372 135,352 109,327 C97,331 86,336 75,342 C69,345 64,349 60,352 C72,366 91,377 114,388 C91,400 72,411 60,424 C64,428 69,432 75,435 C86,441 97,446 109,450 Z M226,377 C241,370 257,363 273,357 C262,344 252,331 242,317 C203,314 167,314 134,320 C159,342 190,360 226,377 Z M99,619 C93,612 89,603 86,595 C90,597 94,598 98,600 C97,606 98,612 99,619 Z M79,567 C79,559 79,551 80,542 C90,545 101,547 112,548 C107,558 103,568 101,578 C93,575 86,571 79,567 Z M23,361 C25,357 28,354 31,351 C28,345 25,340 22,333 C21,343 21,352 23,361 Z M47,335 C52,331 58,327 64,323 C74,318 83,313 94,309 C87,301 80,292 75,283 C71,277 68,270 66,264 C55,270 45,280 36,294 C37,310 40,324 47,335 Z M116,302 C151,293 189,292 226,294 C205,264 187,231 178,195 C165,193 153,191 140,191 C134,191 128,192 122,193 C126,211 136,230 151,251 C125,249 104,250 86,255 C88,261 90,266 94,272 C100,283 107,293 116,302 Z M22,443 C21,434 21,425 23,416 C25,419 28,423 31,426 C28,431 25,437 22,443 Z M32,388 C35,381 39,374 44,368 C52,375 60,382 70,388 C60,395 52,401 44,409 C39,402 35,396 32,388 Z M86,182 C90,180 94,178 98,177 C97,171 98,164 99,158 C93,165 89,173 86,182 Z M119,172 C126,170 133,170 140,170 C151,170 162,171 173,173 C171,162 170,151 170,140 C170,133 170,126 172,119 C158,119 145,123 131,131 C123,145 119,158 119,172 Z M44,253 C48,244 52,237 58,229 C59,234 59,238 60,242 C54,245 49,249 44,253 Z M79,210 C86,205 93,202 101,199 C103,209 107,219 112,229 C101,230 90,231 80,234 C79,226 79,218 79,210 Z M229,58 C234,59 238,59 242,60 C245,54 249,49 253,44 C244,48 237,52 229,58 Z M158,99 C165,93 173,89 182,86 C180,90 178,94 177,98 C171,97 164,98 158,99 Z M210,79 C218,79 226,79 234,80 C231,90 230,101 229,112 C219,107 209,103 199,101 C202,93 205,86 210,79 Z" id="Shape"></path>
        </g>
    </g>
</svg>