<?xml version="1.0" encoding="UTF-8"?>
<svg width="1200px" height="800px" viewBox="0 0 1200 800" version="1.1" xmlns="http://www.w3.org/2000/svg" xmlns:xlink="http://www.w3.org/1999/xlink">
    <!-- Generator: Sketch 52.5 (67469) - http://www.bohemiancoding.com/sketch -->
    <title>anim_svg</title>
    <desc>Created with Sketch.</desc>
    <g id="anim_svg" stroke="none" stroke-width="1" fill="none" fill-rule="evenodd">
        <g id="footer_pattern_left" transform="translate(204.000000, 221.000000)">
            <g id="Group-16">
                <g transform="translate(251.214641, 213.245013) rotate(-25.000000) translate(-251.214641, -213.245013) translate(37.214641, 77.745013)">
                    <rect id="Rectangle-Copy-4" fill="#004FE5" x="156" y="60" width="272" height="8"></rect>
                    <rect id="Rectangle-Copy-4" fill="#00B019" x="28" y="80" width="272" height="8"></rect>
                    <rect id="Rectangle-Copy-8" fill="#FFE01F" x="76" y="100" width="272" height="8"></rect>
                    <rect id="Rectangle-Copy-9" fill="#004FE5" x="0" y="120" width="272" height="8"></rect>
                    <rect id="Rectangle-Copy-10" fill="#0A891D" x="61" y="140" width="272" height="8"></rect>
                    <rect id="Rectangle-Copy-12" fill="#004FE5" x="136" y="160" width="272" height="8"></rect>
                    <rect id="Rectangle-Copy-13" fill="#FFE01F" x="37" y="180" width="272" height="8"></rect>
                    <rect id="Rectangle-Copy-14" fill="#004FE5" x="0" y="200" width="272" height="8"></rect>
                    <rect id="Rectangle-Copy-15" fill="#0A891D" x="61" y="220" width="272" height="8"></rect>
                    <rect id="Rectangle-Copy-19" fill="#004FE5" x="9" y="263" width="272" height="8"></rect>
                    <rect id="Rectangle-Copy-5" fill="#FFE01F" x="93" y="40" width="272" height="8"></rect>
                    <rect id="Rectangle-Copy-6" fill="#0A891D" x="61" y="20" width="272" height="8"></rect>
                    <rect id="Rectangle-Copy-16" fill="#0A891D" x="109" y="0" width="272" height="8"></rect>
                </g>
            </g>
        </g>
    </g>
</svg>