<?xml version="1.0" encoding="UTF-8"?>
<svg width="33px" height="21px" viewBox="0 0 33 21" version="1.1" xmlns="http://www.w3.org/2000/svg" xmlns:xlink="http://www.w3.org/1999/xlink">
    <!-- Generator: Sketch 52.5 (67469) - http://www.bohemiancoding.com/sketch -->
    <title>behance_icon</title>
    <desc>Created with Sketch.</desc>
    <g id="SVG-Experiments" stroke="none" stroke-width="1" fill="none" fill-rule="evenodd">
        <g id="Homepage" transform="translate(-388.000000, -3846.000000)" fill="#FFFFFF" fill-rule="nonzero">
            <g id="Group-24" transform="translate(-304.000000, 3459.000000)">
                <g id="Group-23">
                    <g id="Group-22" transform="translate(0.000000, 57.000000)">
                        <g id="Group-12" transform="translate(673.000000, 304.000000)">
                            <g id="Group-3">
                                <g id="behance_icon" transform="translate(19.800000, 26.100000)">
                                    <path d="M28.8982705,2.83602296 L20.8802563,2.83602296 L20.8802563,0.844408726 L28.8989401,0.844408726 L28.8989401,2.83602296 L28.8982705,2.83602296 Z M15.5424772,11.0029805 C16.0598356,11.8043132 16.318366,12.7772804 16.318366,13.9195757 C16.318366,15.1008551 16.0268776,16.1605695 15.4338572,17.0966356 C15.0565887,17.716067 14.5881837,18.2393029 14.0253685,18.6605401 C13.391504,19.1476932 12.641059,19.4817369 11.7783486,19.6602158 C10.9128854,19.8389924 9.97614971,19.9293107 8.96709989,19.9293107 L0,19.9293107 L0,0.0183761194 L9.61584386,0.0183761194 C12.0396317,0.057806659 13.7579848,0.76004225 14.7726889,2.13914397 C15.3815559,2.98496625 15.6832367,3.99989346 15.6832367,5.17961056 C15.6832367,6.39689828 15.3779104,7.370907 14.7630916,8.11093639 C14.4210875,8.52584983 13.9158558,8.90326705 13.2470246,9.24393203 C14.2600918,9.6148023 15.0287642,10.1988207 15.5424772,11.0029805 Z M4.59194673,7.86825258 L8.80521148,7.86825258 C9.67104661,7.86825258 10.3709759,7.70368588 10.9100583,7.37470126 C11.4487688,7.04623743 11.717566,6.46236785 11.717566,5.6240597 C11.717566,4.6978884 11.3616496,4.08314397 10.6481056,3.78726613 C10.0347747,3.58170654 9.25003261,3.47583927 8.29782227,3.47583927 L4.59194673,3.47583927 L4.59194673,7.86825258 Z M12.1232542,13.635155 C12.1232542,12.6008845 11.700529,11.8858526 10.8567899,11.502186 C10.3849626,11.2841277 9.71925603,11.1726806 8.86569644,11.1647201 L4.59194673,11.1647201 L4.59194673,16.4708804 L8.79955729,16.4708804 C9.66397887,16.4708804 10.3330333,16.3577222 10.8158714,16.1216597 C11.6866168,15.6876262 12.1232542,14.8615936 12.1232542,13.635155 Z M31.8731931,10.3959734 C31.9700583,11.0473956 32.0138783,11.9925382 31.9960974,13.2279045 L21.6118788,13.2279045 C21.6691646,14.6612418 22.1639807,15.6635959 23.1024276,16.2371986 C23.6683674,16.5969093 24.3545332,16.7725612 25.1580234,16.7725612 C26.0052592,16.7725612 26.6958145,16.5583715 27.2273828,16.1180886 C27.5170113,15.8847045 27.7724914,15.5552735 27.9933768,15.1396161 L31.7995398,15.1396161 C31.6998475,15.9861823 31.2415605,16.8448009 30.417983,17.7173318 C29.1419959,19.1041708 27.3524445,19.7995619 25.0541649,19.7995619 C23.1555472,19.7995619 21.4822788,19.2130884 20.0298958,18.0443821 C18.5823486,16.8715839 17.8553387,14.969544 17.8553387,12.3310457 C17.8553387,9.85681653 18.5080257,7.96303467 19.8177892,6.64486429 C21.1323885,5.32423881 22.8289433,4.66693915 24.9201754,4.66693915 C26.1597079,4.66693915 27.2770801,4.88849414 28.2739288,5.33391045 C29.2676528,5.77977313 30.088924,6.48148794 30.7357336,7.44589943 C31.3210912,8.29521837 31.6975412,9.277262 31.8731931,10.3959734 Z M28.1267711,10.7675132 C28.0569865,9.77639311 27.7260675,9.02624569 27.13022,8.51357428 C26.5392827,7.99948932 25.8010388,7.74140528 24.9201754,7.74140528 C23.9614925,7.74140528 23.22124,8.01727026 22.6952514,8.55947738 C22.1656918,9.10056854 21.8361865,9.8362085 21.7011555,10.7675876 L28.1267711,10.7675876 L28.1267711,10.7675132 Z" id="Behance"></path>
                                </g>
                            </g>
                        </g>
                    </g>
                </g>
            </g>
        </g>
    </g>
</svg>