<?xml version="1.0" encoding="UTF-8"?>
<svg width="90px" height="24px" viewBox="0 0 90 24" version="1.1" xmlns="http://www.w3.org/2000/svg" xmlns:xlink="http://www.w3.org/1999/xlink">
    <!-- Generator: Sketch 52.5 (67469) - http://www.bohemiancoding.com/sketch -->
    <title>noun_context_602261</title>
    <desc>Created with Sketch.</desc>
    <g id="Page-1" stroke="none" stroke-width="1" fill="none" fill-rule="evenodd">
        <g id="noun_context_602261" transform="translate(0.000000, -1.000000)" fill="#FFFFFF" fill-rule="nonzero">
            <g id="Group" transform="translate(0.000000, 0.637820)">
                <path d="M12,0.36218 C5.408116,0.36218 0,5.77028 0,12.36218 C0,18.95408 5.408116,24.36218 12,24.36218 C18.591884,24.36218 24,18.95408 24,12.36218 C24,5.77028 18.591884,0.36218 12,0.36218 Z M45,0.36218 C38.408116,0.36218 33,5.77028 33,12.36218 C33,18.95408 38.408116,24.36218 45,24.36218 C51.591883,24.36218 57,18.95408 57,12.36218 C57,5.77028 51.591883,0.36218 45,0.36218 Z M78,0.36218 C71.408116,0.36218 66,5.77028 66,12.36218 C66,18.95408 71.408116,24.36218 78,24.36218 C84.591883,24.36218 90,18.95408 90,12.36218 C90,5.77028 84.591883,0.36218 78,0.36218 Z M12,6.36218 C15.349242,6.36218 18,9.01292 18,12.36218 C18,15.71138 15.349242,18.36218 12,18.36218 C8.650758,18.36218 6,15.71138 6,12.36218 C6,9.01292 8.650758,6.36218 12,6.36218 Z M45,6.36218 C48.349242,6.36218 51,9.01292 51,12.36218 C51,15.71138 48.349242,18.36218 45,18.36218 C41.650758,18.36218 39,15.71138 39,12.36218 C39,9.01292 41.650758,6.36218 45,6.36218 Z M78,6.36218 C81.349242,6.36218 84,9.01292 84,12.36218 C84,15.71138 81.349242,18.36218 78,18.36218 C74.650758,18.36218 72,15.71138 72,12.36218 C72,9.01292 74.650758,6.36218 78,6.36218 Z" id="Shape"></path>
            </g>
        </g>
    </g>
</svg>