<?xml version="1.0" encoding="utf-8"?>
<!-- Generator: Adobe Illustrator 19.0.0, SVG Export Plug-In . SVG Version: 6.00 Build 0)  -->
<svg version="1.1" id="Layer_1" xmlns="http://www.w3.org/2000/svg" xmlns:xlink="http://www.w3.org/1999/xlink" x="0px" y="0px"
	 viewBox="0 0 2400 660" style="enable-background:new 0 0 2400 660;" xml:space="preserve">
<style type="text/css">
	.st0{clip-path:url(#XMLID_28_);fill:#F3F3F3;}
	.st1{clip-path:url(#XMLID_28_);}
	.st2{clip-path:url(#XMLID_29_);fill:none;stroke:#001AD6;stroke-width:1.2848;stroke-miterlimit:10;}
	.st3{clip-path:url(#XMLID_29_);}
	.st4{fill:none;stroke:#001AD6;stroke-width:1.2848;stroke-miterlimit:10;}
	.st5{clip-path:url(#XMLID_30_);fill:none;stroke:#001AD6;stroke-width:1.2848;stroke-miterlimit:10;}
	.st6{clip-path:url(#XMLID_30_);}
	.st7{clip-path:url(#XMLID_31_);fill:none;stroke:#001AD6;stroke-width:1.2848;stroke-miterlimit:10;}
	.st8{clip-path:url(#XMLID_31_);}
	.st9{clip-path:url(#XMLID_32_);fill:none;stroke:#001AD6;stroke-width:1.2848;stroke-miterlimit:10;}
	.st10{clip-path:url(#XMLID_32_);}
	.st11{clip-path:url(#XMLID_33_);fill:none;stroke:#001AD6;stroke-width:1.2848;stroke-miterlimit:10;}
	.st12{clip-path:url(#XMLID_33_);}
	.st13{clip-path:url(#XMLID_34_);fill:none;stroke:#001AD6;stroke-width:1.2848;stroke-miterlimit:10;}
	.st14{clip-path:url(#XMLID_34_);}
	.st15{clip-path:url(#XMLID_28_);fill:none;stroke:#00AD25;stroke-width:2;stroke-miterlimit:10;}
	.st16{fill:none;stroke:#FFDC10;stroke-width:1.3904;stroke-miterlimit:10;}
</style>
<g id="XMLID_181_">
	<defs>
		<rect id="XMLID_182_" width="2400" height="660"/>
	</defs>
	<clipPath id="XMLID_28_">
		<use xlink:href="#XMLID_182_"  style="overflow:visible;"/>
	</clipPath>
	<rect id="XMLID_558_" x="1" class="st0" width="2400" height="660"/>
	<g id="XMLID_485_" class="st1">
		<defs>
			<polygon id="XMLID_486_" points="313.2,398.1 436.1,264 490.9,437.5 			"/>
		</defs>
		<clipPath id="XMLID_29_">
			<use xlink:href="#XMLID_486_"  style="overflow:visible;"/>
		</clipPath>
		<polygon id="XMLID_557_" class="st2" points="313.2,398.1 436.1,264 490.9,437.5 		"/>
		<g id="XMLID_487_" class="st3">
			<line id="XMLID_556_" class="st4" x1="295.4" y1="235.5" x2="600.4" y2="303"/>
			<line id="XMLID_555_" class="st4" x1="294.1" y1="241.5" x2="599" y2="309"/>
			<line id="XMLID_554_" class="st4" x1="292.8" y1="247.5" x2="597.7" y2="315.1"/>
			<line id="XMLID_553_" class="st4" x1="291.4" y1="253.5" x2="596.4" y2="321.1"/>
			<line id="XMLID_552_" class="st4" x1="290.1" y1="259.6" x2="595" y2="327.1"/>
			<line id="XMLID_551_" class="st4" x1="288.8" y1="265.6" x2="593.7" y2="333.1"/>
			<line id="XMLID_550_" class="st4" x1="287.4" y1="271.6" x2="592.4" y2="339.2"/>
			<line id="XMLID_549_" class="st4" x1="286.1" y1="277.6" x2="591" y2="345.2"/>
			<line id="XMLID_548_" class="st4" x1="284.8" y1="283.7" x2="589.7" y2="351.2"/>
			<line id="XMLID_546_" class="st4" x1="283.4" y1="289.7" x2="588.4" y2="357.2"/>
			<line id="XMLID_545_" class="st4" x1="282.1" y1="295.7" x2="587" y2="363.3"/>
			<line id="XMLID_544_" class="st4" x1="280.7" y1="301.7" x2="585.7" y2="369.3"/>
			<line id="XMLID_543_" class="st4" x1="279.4" y1="307.8" x2="584.4" y2="375.3"/>
			<line id="XMLID_542_" class="st4" x1="278.1" y1="313.8" x2="583" y2="381.3"/>
			<line id="XMLID_541_" class="st4" x1="276.7" y1="319.8" x2="581.7" y2="387.4"/>
			<line id="XMLID_540_" class="st4" x1="275.4" y1="325.9" x2="580.4" y2="393.4"/>
			<line id="XMLID_539_" class="st4" x1="274.1" y1="331.9" x2="579" y2="399.4"/>
			<line id="XMLID_538_" class="st4" x1="272.7" y1="337.9" x2="577.7" y2="405.5"/>
			<line id="XMLID_537_" class="st4" x1="271.4" y1="343.9" x2="576.4" y2="411.5"/>
			<line id="XMLID_536_" class="st4" x1="270.1" y1="350" x2="575" y2="417.5"/>
			<line id="XMLID_535_" class="st4" x1="268.7" y1="356" x2="573.7" y2="423.5"/>
			<line id="XMLID_534_" class="st4" x1="267.4" y1="362" x2="572.3" y2="429.6"/>
			<line id="XMLID_497_" class="st4" x1="266.1" y1="368" x2="571" y2="435.6"/>
			<line id="XMLID_496_" class="st4" x1="264.7" y1="374.1" x2="569.7" y2="441.6"/>
			<line id="XMLID_495_" class="st4" x1="263.4" y1="380.1" x2="568.3" y2="447.6"/>
			<line id="XMLID_494_" class="st4" x1="260.7" y1="392.1" x2="565.7" y2="459.7"/>
			<line id="XMLID_493_" class="st4" x1="259.4" y1="398.2" x2="564.3" y2="465.7"/>
			<line id="XMLID_492_" class="st4" x1="258.1" y1="404.2" x2="563" y2="471.7"/>
			<line id="XMLID_491_" class="st4" x1="256.7" y1="410.2" x2="561.7" y2="477.8"/>
			<line id="XMLID_490_" class="st4" x1="255.4" y1="416.3" x2="560.3" y2="483.8"/>
			<line id="XMLID_489_" class="st4" x1="254" y1="422.3" x2="559" y2="489.8"/>
			<line id="XMLID_488_" class="st4" x1="262.1" y1="386.1" x2="567" y2="453.7"/>
		</g>
	</g>
	<g id="XMLID_433_" class="st1">
		<defs>
			<polygon id="XMLID_434_" points="1042.9,812.5 995.1,636.9 1171,683.2 			"/>
		</defs>
		<clipPath id="XMLID_30_">
			<use xlink:href="#XMLID_434_"  style="overflow:visible;"/>
		</clipPath>
		<polygon id="XMLID_484_" class="st5" points="1042.9,812.5 995.1,636.9 1171,683.2 		"/>
		<g id="XMLID_435_" class="st6">
			<line id="XMLID_483_" class="st4" x1="895.9" y1="740.7" x2="1115.7" y2="518.9"/>
			<line id="XMLID_482_" class="st4" x1="900.3" y1="745" x2="1120.1" y2="523.2"/>
			<line id="XMLID_481_" class="st4" x1="904.6" y1="749.4" x2="1124.5" y2="527.5"/>
			<line id="XMLID_480_" class="st4" x1="909" y1="753.7" x2="1128.9" y2="531.9"/>
			<line id="XMLID_479_" class="st4" x1="913.4" y1="758.1" x2="1133.3" y2="536.2"/>
			<line id="XMLID_478_" class="st4" x1="917.8" y1="762.4" x2="1137.7" y2="540.6"/>
			<line id="XMLID_477_" class="st4" x1="922.2" y1="766.8" x2="1142.1" y2="544.9"/>
			<line id="XMLID_476_" class="st4" x1="926.6" y1="771.1" x2="1146.4" y2="549.3"/>
			<line id="XMLID_475_" class="st4" x1="931" y1="775.5" x2="1150.8" y2="553.6"/>
			<line id="XMLID_474_" class="st4" x1="935.3" y1="779.8" x2="1155.2" y2="558"/>
			<line id="XMLID_473_" class="st4" x1="939.7" y1="784.1" x2="1159.6" y2="562.3"/>
			<line id="XMLID_472_" class="st4" x1="944.1" y1="788.5" x2="1164" y2="566.6"/>
			<line id="XMLID_471_" class="st4" x1="948.5" y1="792.8" x2="1168.4" y2="571"/>
			<line id="XMLID_470_" class="st4" x1="952.9" y1="797.2" x2="1172.7" y2="575.3"/>
			<line id="XMLID_469_" class="st4" x1="957.3" y1="801.5" x2="1177.1" y2="579.7"/>
			<line id="XMLID_468_" class="st4" x1="961.6" y1="805.9" x2="1181.5" y2="584"/>
			<line id="XMLID_467_" class="st4" x1="966" y1="810.2" x2="1185.9" y2="588.4"/>
			<line id="XMLID_466_" class="st4" x1="970.4" y1="814.6" x2="1190.3" y2="592.7"/>
			<line id="XMLID_465_" class="st4" x1="974.8" y1="818.9" x2="1194.7" y2="597.1"/>
			<line id="XMLID_464_" class="st4" x1="979.2" y1="823.3" x2="1199" y2="601.4"/>
			<line id="XMLID_463_" class="st4" x1="983.6" y1="827.6" x2="1203.4" y2="605.8"/>
			<line id="XMLID_462_" class="st4" x1="987.9" y1="831.9" x2="1207.8" y2="610.1"/>
			<line id="XMLID_461_" class="st4" x1="992.3" y1="836.3" x2="1212.2" y2="614.4"/>
			<line id="XMLID_460_" class="st4" x1="996.7" y1="840.6" x2="1216.6" y2="618.8"/>
			<line id="XMLID_459_" class="st4" x1="1001.1" y1="845" x2="1221" y2="623.1"/>
			<line id="XMLID_442_" class="st4" x1="1009.9" y1="853.7" x2="1229.7" y2="631.8"/>
			<line id="XMLID_441_" class="st4" x1="1014.2" y1="858" x2="1234.1" y2="636.2"/>
			<line id="XMLID_440_" class="st4" x1="1018.6" y1="862.4" x2="1238.5" y2="640.5"/>
			<line id="XMLID_439_" class="st4" x1="1023" y1="866.7" x2="1242.9" y2="644.9"/>
			<line id="XMLID_438_" class="st4" x1="1027.4" y1="871" x2="1247.3" y2="649.2"/>
			<line id="XMLID_437_" class="st4" x1="1031.8" y1="875.4" x2="1251.7" y2="653.6"/>
			<line id="XMLID_436_" class="st4" x1="1005.5" y1="849.3" x2="1225.4" y2="627.5"/>
		</g>
	</g>
	<g id="XMLID_397_" class="st1">
		<defs>
			<polygon id="XMLID_398_" points="1519.7,729.6 1579.8,557.9 1698.5,695.8 			"/>
		</defs>
		<clipPath id="XMLID_31_">
			<use xlink:href="#XMLID_398_"  style="overflow:visible;"/>
		</clipPath>
		<polygon id="XMLID_432_" class="st7" points="1519.7,729.6 1579.8,557.9 1698.5,695.8 		"/>
		<g id="XMLID_399_" class="st8">
			<line id="XMLID_431_" class="st4" x1="1439.3" y1="587" x2="1746.2" y2="529"/>
			<line id="XMLID_430_" class="st4" x1="1440.4" y1="593.1" x2="1747.3" y2="535.1"/>
			<line id="XMLID_429_" class="st4" x1="1441.6" y1="599.2" x2="1748.5" y2="541.2"/>
			<line id="XMLID_428_" class="st4" x1="1442.7" y1="605.2" x2="1749.6" y2="547.2"/>
			<line id="XMLID_427_" class="st4" x1="1443.9" y1="611.3" x2="1750.8" y2="553.3"/>
			<line id="XMLID_426_" class="st4" x1="1445" y1="617.4" x2="1751.9" y2="559.4"/>
			<line id="XMLID_425_" class="st4" x1="1446.2" y1="623.4" x2="1753.1" y2="565.4"/>
			<line id="XMLID_424_" class="st4" x1="1447.3" y1="629.5" x2="1754.2" y2="571.5"/>
			<line id="XMLID_423_" class="st4" x1="1448.5" y1="635.6" x2="1755.4" y2="577.6"/>
			<line id="XMLID_422_" class="st4" x1="1449.6" y1="641.6" x2="1756.5" y2="583.6"/>
			<line id="XMLID_421_" class="st4" x1="1450.7" y1="647.7" x2="1757.7" y2="589.7"/>
			<line id="XMLID_420_" class="st4" x1="1451.9" y1="653.8" x2="1758.8" y2="595.8"/>
			<line id="XMLID_419_" class="st4" x1="1453" y1="659.8" x2="1759.9" y2="601.8"/>
			<line id="XMLID_418_" class="st4" x1="1454.2" y1="665.9" x2="1761.1" y2="607.9"/>
			<line id="XMLID_417_" class="st4" x1="1455.3" y1="672" x2="1762.2" y2="614"/>
			<line id="XMLID_416_" class="st4" x1="1456.5" y1="678" x2="1763.4" y2="620"/>
			<line id="XMLID_415_" class="st4" x1="1457.6" y1="684.1" x2="1764.5" y2="626.1"/>
			<line id="XMLID_414_" class="st4" x1="1458.8" y1="690.1" x2="1765.7" y2="632.2"/>
			<line id="XMLID_413_" class="st4" x1="1459.9" y1="696.2" x2="1766.8" y2="638.2"/>
			<line id="XMLID_412_" class="st4" x1="1461.1" y1="702.3" x2="1768" y2="644.3"/>
			<line id="XMLID_411_" class="st4" x1="1462.2" y1="708.3" x2="1769.1" y2="650.4"/>
			<line id="XMLID_410_" class="st4" x1="1463.4" y1="714.4" x2="1770.3" y2="656.4"/>
			<line id="XMLID_409_" class="st4" x1="1464.5" y1="720.5" x2="1771.4" y2="662.5"/>
			<line id="XMLID_408_" class="st4" x1="1465.6" y1="726.5" x2="1772.6" y2="668.6"/>
			<line id="XMLID_407_" class="st4" x1="1466.8" y1="732.6" x2="1773.7" y2="674.6"/>
			<line id="XMLID_406_" class="st4" x1="1469.1" y1="744.7" x2="1776" y2="686.7"/>
			<line id="XMLID_405_" class="st4" x1="1470.2" y1="750.8" x2="1777.1" y2="692.8"/>
			<line id="XMLID_404_" class="st4" x1="1471.4" y1="756.9" x2="1778.3" y2="698.9"/>
			<line id="XMLID_403_" class="st4" x1="1472.5" y1="762.9" x2="1779.4" y2="704.9"/>
			<line id="XMLID_402_" class="st4" x1="1473.7" y1="769" x2="1780.6" y2="711"/>
			<line id="XMLID_401_" class="st4" x1="1474.8" y1="775.1" x2="1781.7" y2="717.1"/>
			<line id="XMLID_400_" class="st4" x1="1467.9" y1="738.7" x2="1774.8" y2="680.7"/>
		</g>
	</g>
	<g id="XMLID_360_" class="st1">
		<defs>
			<polygon id="XMLID_361_" points="2041.9,610 1994.1,434.4 2170,480.7 			"/>
		</defs>
		<clipPath id="XMLID_32_">
			<use xlink:href="#XMLID_361_"  style="overflow:visible;"/>
		</clipPath>
		<polygon id="XMLID_396_" class="st9" points="2041.9,610 1994.1,434.4 2170,480.7 		"/>
		<g id="XMLID_362_" class="st10">
			<line id="XMLID_395_" class="st4" x1="1894.9" y1="538.2" x2="2114.7" y2="316.3"/>
			<line id="XMLID_394_" class="st4" x1="1899.2" y1="542.5" x2="2119.1" y2="320.7"/>
			<line id="XMLID_393_" class="st4" x1="1903.6" y1="546.9" x2="2123.5" y2="325"/>
			<line id="XMLID_392_" class="st4" x1="1908" y1="551.2" x2="2127.9" y2="329.4"/>
			<line id="XMLID_391_" class="st4" x1="1912.4" y1="555.6" x2="2132.3" y2="333.7"/>
			<line id="XMLID_390_" class="st4" x1="1916.8" y1="559.9" x2="2136.6" y2="338.1"/>
			<line id="XMLID_389_" class="st4" x1="1921.2" y1="564.2" x2="2141" y2="342.4"/>
			<line id="XMLID_388_" class="st4" x1="1925.5" y1="568.6" x2="2145.4" y2="346.8"/>
			<line id="XMLID_387_" class="st4" x1="1929.9" y1="572.9" x2="2149.8" y2="351.1"/>
			<line id="XMLID_386_" class="st4" x1="1934.3" y1="577.3" x2="2154.2" y2="355.4"/>
			<line id="XMLID_385_" class="st4" x1="1938.7" y1="581.6" x2="2158.6" y2="359.8"/>
			<line id="XMLID_384_" class="st4" x1="1943.1" y1="586" x2="2163" y2="364.1"/>
			<line id="XMLID_383_" class="st4" x1="1947.5" y1="590.3" x2="2167.3" y2="368.5"/>
			<line id="XMLID_382_" class="st4" x1="1951.9" y1="594.7" x2="2171.7" y2="372.8"/>
			<line id="XMLID_381_" class="st4" x1="1956.2" y1="599" x2="2176.1" y2="377.2"/>
			<line id="XMLID_380_" class="st4" x1="1960.6" y1="603.4" x2="2180.5" y2="381.5"/>
			<line id="XMLID_379_" class="st4" x1="1965" y1="607.7" x2="2184.9" y2="385.9"/>
			<line id="XMLID_378_" class="st4" x1="1969.4" y1="612" x2="2189.3" y2="390.2"/>
			<line id="XMLID_377_" class="st4" x1="1973.8" y1="616.4" x2="2193.6" y2="394.5"/>
			<line id="XMLID_376_" class="st4" x1="1978.2" y1="620.7" x2="2198" y2="398.9"/>
			<line id="XMLID_375_" class="st4" x1="1982.5" y1="625.1" x2="2202.4" y2="403.2"/>
			<line id="XMLID_374_" class="st4" x1="1986.9" y1="629.4" x2="2206.8" y2="407.6"/>
			<line id="XMLID_373_" class="st4" x1="1991.3" y1="633.8" x2="2211.2" y2="411.9"/>
			<line id="XMLID_372_" class="st4" x1="1995.7" y1="638.1" x2="2215.6" y2="416.3"/>
			<line id="XMLID_371_" class="st4" x1="2000.1" y1="642.5" x2="2219.9" y2="420.6"/>
			<line id="XMLID_370_" class="st4" x1="2008.8" y1="651.1" x2="2228.7" y2="429.3"/>
			<line id="XMLID_369_" class="st4" x1="2013.2" y1="655.5" x2="2233.1" y2="433.7"/>
			<line id="XMLID_368_" class="st4" x1="2017.6" y1="659.8" x2="2237.5" y2="438"/>
			<line id="XMLID_367_" class="st4" x1="2022" y1="664.2" x2="2241.9" y2="442.3"/>
			<line id="XMLID_366_" class="st4" x1="2026.4" y1="668.5" x2="2246.3" y2="446.7"/>
			<line id="XMLID_365_" class="st4" x1="2030.8" y1="672.9" x2="2250.6" y2="451"/>
			<line id="XMLID_363_" class="st4" x1="2004.5" y1="646.8" x2="2224.3" y2="425"/>
		</g>
	</g>
	<g id="XMLID_288_" class="st1">
		<defs>
			<polygon id="XMLID_289_" points="2307.6,535.9 2342.3,357.3 2479.6,476.7 			"/>
		</defs>
		<clipPath id="XMLID_33_">
			<use xlink:href="#XMLID_289_"  style="overflow:visible;"/>
		</clipPath>
		<polygon id="XMLID_359_" class="st11" points="2307.6,535.9 2342.3,357.3 2479.6,476.7 		"/>
		<g id="XMLID_290_" class="st12">
			<line id="XMLID_358_" class="st4" x1="2207.5" y1="406.5" x2="2502.8" y2="304.8"/>
			<line id="XMLID_357_" class="st4" x1="2209.5" y1="412.3" x2="2504.8" y2="310.6"/>
			<line id="XMLID_356_" class="st4" x1="2211.5" y1="418.2" x2="2506.8" y2="316.5"/>
			<line id="XMLID_355_" class="st4" x1="2213.5" y1="424" x2="2508.8" y2="322.3"/>
			<line id="XMLID_354_" class="st4" x1="2215.5" y1="429.8" x2="2510.8" y2="328.2"/>
			<line id="XMLID_353_" class="st4" x1="2217.5" y1="435.7" x2="2512.9" y2="334"/>
			<line id="XMLID_352_" class="st4" x1="2219.5" y1="441.5" x2="2514.9" y2="339.8"/>
			<line id="XMLID_351_" class="st4" x1="2221.5" y1="447.3" x2="2516.9" y2="345.7"/>
			<line id="XMLID_314_" class="st4" x1="2223.6" y1="453.2" x2="2518.9" y2="351.5"/>
			<line id="XMLID_313_" class="st4" x1="2225.6" y1="459" x2="2520.9" y2="357.3"/>
			<line id="XMLID_312_" class="st4" x1="2227.6" y1="464.8" x2="2522.9" y2="363.2"/>
			<line id="XMLID_311_" class="st4" x1="2229.6" y1="470.7" x2="2524.9" y2="369"/>
			<line id="XMLID_310_" class="st4" x1="2231.6" y1="476.5" x2="2526.9" y2="374.8"/>
			<line id="XMLID_309_" class="st4" x1="2233.6" y1="482.4" x2="2528.9" y2="380.7"/>
			<line id="XMLID_308_" class="st4" x1="2235.6" y1="488.2" x2="2530.9" y2="386.5"/>
			<line id="XMLID_307_" class="st4" x1="2237.6" y1="494" x2="2532.9" y2="392.4"/>
			<line id="XMLID_306_" class="st4" x1="2239.6" y1="499.9" x2="2535" y2="398.2"/>
			<line id="XMLID_305_" class="st4" x1="2241.6" y1="505.7" x2="2537" y2="404"/>
			<line id="XMLID_304_" class="st4" x1="2243.6" y1="511.5" x2="2539" y2="409.9"/>
			<line id="XMLID_303_" class="st4" x1="2245.7" y1="517.4" x2="2541" y2="415.7"/>
			<line id="XMLID_302_" class="st4" x1="2247.7" y1="523.2" x2="2543" y2="421.5"/>
			<line id="XMLID_301_" class="st4" x1="2249.7" y1="529" x2="2545" y2="427.4"/>
			<line id="XMLID_300_" class="st4" x1="2251.7" y1="534.9" x2="2547" y2="433.2"/>
			<line id="XMLID_299_" class="st4" x1="2253.7" y1="540.7" x2="2549" y2="439"/>
			<line id="XMLID_298_" class="st4" x1="2255.7" y1="546.6" x2="2551" y2="444.9"/>
			<line id="XMLID_297_" class="st4" x1="2259.7" y1="558.2" x2="2555" y2="456.6"/>
			<line id="XMLID_296_" class="st4" x1="2261.7" y1="564.1" x2="2557.1" y2="462.4"/>
			<line id="XMLID_295_" class="st4" x1="2263.7" y1="569.9" x2="2559.1" y2="468.2"/>
			<line id="XMLID_294_" class="st4" x1="2265.7" y1="575.7" x2="2561.1" y2="474.1"/>
			<line id="XMLID_293_" class="st4" x1="2267.8" y1="581.6" x2="2563.1" y2="479.9"/>
			<line id="XMLID_292_" class="st4" x1="2269.8" y1="587.4" x2="2565.1" y2="485.7"/>
			<line id="XMLID_291_" class="st4" x1="2257.7" y1="552.4" x2="2553" y2="450.7"/>
		</g>
	</g>
	<g id="XMLID_252_" class="st1">
		<defs>
			<polygon id="XMLID_253_" points="35.7,544.4 199.9,466 185.8,647.4 			"/>
		</defs>
		<clipPath id="XMLID_34_">
			<use xlink:href="#XMLID_253_"  style="overflow:visible;"/>
		</clipPath>
		<polygon id="XMLID_287_" class="st13" points="35.7,544.4 199.9,466 185.8,647.4 		"/>
		<g id="XMLID_254_" class="st14">
			<line id="XMLID_286_" class="st4" x1="80.1" y1="386.9" x2="337.6" y2="563.6"/>
			<line id="XMLID_285_" class="st4" x1="76.6" y1="392" x2="334.1" y2="568.7"/>
			<line id="XMLID_284_" class="st4" x1="73.1" y1="397.1" x2="330.6" y2="573.8"/>
			<line id="XMLID_283_" class="st4" x1="69.6" y1="402.2" x2="327.2" y2="578.9"/>
			<line id="XMLID_282_" class="st4" x1="66.1" y1="407.3" x2="323.7" y2="583.9"/>
			<line id="XMLID_281_" class="st4" x1="62.6" y1="412.4" x2="320.2" y2="589"/>
			<line id="XMLID_280_" class="st4" x1="59.1" y1="417.5" x2="316.7" y2="594.1"/>
			<line id="XMLID_279_" class="st4" x1="55.6" y1="422.5" x2="313.2" y2="599.2"/>
			<line id="XMLID_278_" class="st4" x1="52.1" y1="427.6" x2="309.7" y2="604.3"/>
			<line id="XMLID_277_" class="st4" x1="48.6" y1="432.7" x2="306.2" y2="609.4"/>
			<line id="XMLID_276_" class="st4" x1="45.1" y1="437.8" x2="302.7" y2="614.5"/>
			<line id="XMLID_275_" class="st4" x1="41.7" y1="442.9" x2="299.2" y2="619.6"/>
			<line id="XMLID_274_" class="st4" x1="38.2" y1="448" x2="295.7" y2="624.7"/>
			<line id="XMLID_273_" class="st4" x1="34.7" y1="453.1" x2="292.2" y2="629.8"/>
			<line id="XMLID_272_" class="st4" x1="31.2" y1="458.2" x2="288.7" y2="634.9"/>
			<line id="XMLID_271_" class="st4" x1="27.7" y1="463.3" x2="285.3" y2="639.9"/>
			<line id="XMLID_270_" class="st4" x1="24.2" y1="468.4" x2="281.8" y2="645"/>
			<line id="XMLID_269_" class="st4" x1="20.7" y1="473.4" x2="278.3" y2="650.1"/>
			<line id="XMLID_268_" class="st4" x1="17.2" y1="478.5" x2="274.8" y2="655.2"/>
			<line id="XMLID_267_" class="st4" x1="13.7" y1="483.6" x2="271.3" y2="660.3"/>
			<line id="XMLID_266_" class="st4" x1="10.2" y1="488.7" x2="267.8" y2="665.4"/>
			<line id="XMLID_265_" class="st4" x1="6.7" y1="493.8" x2="264.3" y2="670.5"/>
			<line id="XMLID_264_" class="st4" x1="3.2" y1="498.9" x2="260.8" y2="675.6"/>
			<line id="XMLID_263_" class="st4" x1="-0.2" y1="504" x2="257.3" y2="680.7"/>
			<line id="XMLID_262_" class="st4" x1="-3.7" y1="509.1" x2="253.8" y2="685.8"/>
			<line id="XMLID_261_" class="st4" x1="-10.7" y1="519.3" x2="246.8" y2="695.9"/>
			<line id="XMLID_260_" class="st4" x1="-14.2" y1="524.4" x2="243.4" y2="701"/>
			<line id="XMLID_259_" class="st4" x1="-17.7" y1="529.4" x2="239.9" y2="706.1"/>
			<line id="XMLID_258_" class="st4" x1="-21.2" y1="534.5" x2="236.4" y2="711.2"/>
			<line id="XMLID_257_" class="st4" x1="-24.7" y1="539.6" x2="232.9" y2="716.3"/>
			<line id="XMLID_256_" class="st4" x1="-28.2" y1="544.7" x2="229.4" y2="721.4"/>
			<line id="XMLID_255_" class="st4" x1="-7.2" y1="514.2" x2="250.3" y2="690.8"/>
		</g>
	</g>
	<polyline id="XMLID_251_" class="st15" points="1809.1,307.2 1830.2,292.6 1844.1,312.7 1864.4,298.5 1878.6,318.9 1898.2,305.3 
		1913.1,326.8 1934.7,311.8 1949.9,333.7 1971.1,319 1986.3,340.8 2008.3,325.5 2023.2,346.8 	"/>
	<polyline id="XMLID_250_" class="st15" points="1260,598.1 1285.4,601.2 1282.5,625.5 1307,628.4 1304,653.1 1327.7,656 
		1324.5,682 1350.6,685.2 1347.4,711.6 1373,714.7 1369.8,741.1 1396.4,744.4 1393.3,770.2 	"/>
	<polyline id="XMLID_249_" class="st15" points="2169.5,629 2189.7,613.2 2204.8,632.4 2224.3,617.1 2239.6,636.7 2258.3,622 
		2274.5,642.6 2295.2,626.4 2311.7,647.3 2331.9,631.4 2348.3,652.4 2369.5,635.8 2385.5,656.2 	"/>
	<polyline id="XMLID_248_" class="st15" points="299.2,523.7 322.6,513 332.8,535.2 355.2,524.9 365.6,547.4 387.2,537.5 
		398.2,561.3 422.1,550.3 433.2,574.6 456.6,563.8 467.7,588 492.1,576.7 503,600.4 	"/>
	<polyline id="XMLID_247_" class="st15" points="715.2,785.6 724.6,761.8 747.3,770.7 756.4,747.7 779.5,756.8 788.2,734.7 
		812.6,744.3 822.2,719.8 847,729.6 856.5,705.6 881.2,715.4 891.1,690.4 915.3,699.9 	"/>
	<g id="XMLID_231_" class="st1">
		<g id="XMLID_237_">
			<polygon id="XMLID_246_" class="st16" points="1732.6,464.1 1747,500.7 1831,597.7 1852.6,579 1768.6,482 			"/>
			<path id="XMLID_245_" class="st16" d="M1736.1,472.9c0,0,3.7-0.6,5.2-4.5"/>
			<line id="XMLID_244_" class="st16" x1="1768.6" y1="482" x2="1747" y2="500.7"/>
			<g id="XMLID_238_">
				<line id="XMLID_243_" class="st16" x1="1764.3" y1="485.7" x2="1848.2" y2="582.8"/>
				<line id="XMLID_242_" class="st16" x1="1759.9" y1="489.4" x2="1843.9" y2="586.5"/>
				<line id="XMLID_241_" class="st16" x1="1755.6" y1="493.2" x2="1839.6" y2="590.2"/>
				<line id="XMLID_240_" class="st16" x1="1751.3" y1="496.9" x2="1835.3" y2="594"/>
				<polyline id="XMLID_239_" class="st16" points="1747,500.7 1831,597.7 1845,614 1866.6,595.3 1852.6,579 1768.6,482 				"/>
			</g>
		</g>
		<line id="XMLID_236_" class="st16" x1="1834.6" y1="601.9" x2="1856.2" y2="583.2"/>
		<line id="XMLID_235_" class="st16" x1="1836.2" y1="603.8" x2="1857.8" y2="585.1"/>
		<line id="XMLID_234_" class="st16" x1="1839.9" y1="608.1" x2="1861.5" y2="589.4"/>
		<line id="XMLID_233_" class="st16" x1="1841.5" y1="610" x2="1863.2" y2="591.2"/>
		<polyline id="XMLID_232_" class="st16" points="1845,614 1857,627.9 1878.6,609.2 1866.6,595.3 		"/>
	</g>
	<g id="XMLID_215_" class="st1">
		<g id="XMLID_221_">
			<polygon id="XMLID_230_" class="st16" points="761.9,588.3 734.8,559.9 620.3,502 607.4,527.5 721.9,585.4 			"/>
			<path id="XMLID_229_" class="st16" d="M755.4,581.5c0,0-3.2,2-3.1,6.1"/>
			<line id="XMLID_228_" class="st16" x1="721.9" y1="585.4" x2="734.8" y2="559.9"/>
			<g id="XMLID_222_">
				<line id="XMLID_227_" class="st16" x1="724.5" y1="580.3" x2="609.9" y2="522.4"/>
				<line id="XMLID_226_" class="st16" x1="727" y1="575.2" x2="612.5" y2="517.3"/>
				<line id="XMLID_225_" class="st16" x1="729.6" y1="570.1" x2="615.1" y2="512.2"/>
				<line id="XMLID_224_" class="st16" x1="732.2" y1="565" x2="617.7" y2="507.1"/>
				<polyline id="XMLID_223_" class="st16" points="734.8,559.9 620.3,502 601.1,492.3 588.2,517.8 607.4,527.5 721.9,585.4 				"/>
			</g>
		</g>
		<line id="XMLID_220_" class="st16" x1="615.3" y1="499.4" x2="602.4" y2="524.9"/>
		<line id="XMLID_219_" class="st16" x1="613.1" y1="498.3" x2="600.2" y2="523.8"/>
		<line id="XMLID_218_" class="st16" x1="608" y1="495.8" x2="595.1" y2="521.3"/>
		<line id="XMLID_217_" class="st16" x1="605.8" y1="494.6" x2="592.9" y2="520.1"/>
		<polyline id="XMLID_216_" class="st16" points="601.1,492.3 584.7,484 571.8,509.5 588.2,517.8 		"/>
	</g>
	<g id="XMLID_183_" class="st1">
		<g id="XMLID_189_">
			<polygon id="XMLID_214_" class="st16" points="166.5,319.4 127.2,320.1 7,364.9 17,391.7 137.2,346.9 			"/>
			<path id="XMLID_213_" class="st16" d="M157.1,319.6c0,0-0.7,3.7,2.4,6.4"/>
			<line id="XMLID_212_" class="st16" x1="137.2" y1="346.9" x2="127.2" y2="320.1"/>
			<g id="XMLID_190_">
				<line id="XMLID_211_" class="st16" x1="135.2" y1="341.5" x2="15" y2="386.4"/>
				<line id="XMLID_194_" class="st16" x1="133.2" y1="336.2" x2="13" y2="381"/>
				<line id="XMLID_193_" class="st16" x1="131.2" y1="330.8" x2="11" y2="375.7"/>
				<line id="XMLID_192_" class="st16" x1="129.2" y1="325.4" x2="9" y2="370.3"/>
				<polyline id="XMLID_191_" class="st16" points="127.2,320.1 7,364.9 -13.1,372.5 -3.1,399.2 17,391.7 137.2,346.9 				"/>
			</g>
		</g>
		<line id="XMLID_188_" class="st16" x1="1.8" y1="366.9" x2="11.8" y2="393.7"/>
		<line id="XMLID_187_" class="st16" x1="-0.5" y1="367.7" x2="9.5" y2="394.5"/>
		<line id="XMLID_186_" class="st16" x1="-5.9" y1="369.7" x2="4.1" y2="396.5"/>
		<line id="XMLID_185_" class="st16" x1="-8.2" y1="370.6" x2="1.8" y2="397.4"/>
		<polyline id="XMLID_184_" class="st16" points="-13.1,372.5 -30.3,378.9 -20.4,405.7 -3.1,399.2 		"/>
	</g>
</g>
</svg>
