<?xml version="1.0" encoding="UTF-8"?>
<svg width="32px" height="31px" viewBox="0 0 32 31" version="1.1" xmlns="http://www.w3.org/2000/svg" xmlns:xlink="http://www.w3.org/1999/xlink">
    <!-- Generator: Sketch 52.5 (67469) - http://www.bohemiancoding.com/sketch -->
    <title>github_icon</title>
    <desc>Created with Sketch.</desc>
    <g id="SVG-Experiments" stroke="none" stroke-width="1" fill="none" fill-rule="evenodd">
        <g id="Homepage" transform="translate(-749.000000, -3840.000000)" fill="#FFFFFF">
            <g id="Group-24" transform="translate(-304.000000, 3459.000000)">
                <g id="Group-23">
                    <g id="Group-22" transform="translate(0.000000, 57.000000)">
                        <g id="Group-12" transform="translate(673.000000, 304.000000)">
                            <g id="Group-10" transform="translate(360.000000, 0.000000)">
                                <g id="github_icon" transform="translate(20.700000, 20.700000)">
                                    <path d="M28.5180847,7.63766241 C27.1513312,5.29589112 25.2974173,3.44190752 22.9558551,2.07529339 C20.6139444,0.708609567 18.0572761,0.0254419134 15.2840378,0.0254419134 C12.5111481,0.0254419134 9.95364328,0.708818679 7.6122205,2.07529339 C5.2704492,3.44183781 3.41660501,5.29589112 2.04985148,7.63766241 C0.683307062,9.97936401 0,12.5365203 0,15.3090615 C0,18.6395125 0.971671982,21.6343394 2.91550387,24.2943089 C4.85912665,26.9544875 7.36999954,28.7952273 10.4479134,29.8167376 C10.8061913,29.8832351 11.0714146,29.8364638 11.243862,29.6776087 C11.416379,29.5185444 11.502533,29.3193308 11.502533,29.0808041 C11.502533,29.0410032 11.4991175,28.6829344 11.4924957,28.0061795 C11.4856647,27.3294246 11.4824583,26.7390328 11.4824583,26.2352829 L11.024713,26.3144665 C10.7328629,26.3679294 10.364687,26.3905831 9.92018542,26.3841704 C9.47589294,26.3779667 9.01466241,26.3314046 8.53712118,26.2448323 C8.05937084,26.1590269 7.61500866,25.9600223 7.2036861,25.6482369 C6.79257267,25.3364515 6.50072255,24.9283353 6.32820547,24.4245157 L6.12920091,23.9665613 C5.99655444,23.6616765 5.78772164,23.3229854 5.50242369,22.9517426 C5.21712574,22.5801513 4.92862141,22.3282415 4.6367713,22.195595 L4.49743326,22.0958487 C4.4045877,22.0295604 4.31843371,21.94961 4.23876219,21.8568342 C4.15916036,21.7640583 4.09956355,21.6712128 4.05976264,21.5782278 C4.01989203,21.4851731 4.05293166,21.4088474 4.15923007,21.3489718 C4.26552847,21.2890961 4.45763235,21.2600296 4.73637813,21.2600296 L5.13424784,21.319487 C5.39961048,21.3726711 5.72784601,21.5315262 6.11937267,21.7970282 C6.51069021,22.0623212 6.83237358,22.4072159 7.08449248,22.8315731 C7.38979544,23.3756815 7.75762278,23.7902802 8.18902005,24.0755781 C8.62006879,24.3608761 9.05467244,24.5032811 9.49241276,24.5032811 C9.93015308,24.5032811 10.3082269,24.4701021 10.6267736,24.4040925 C10.9449718,24.3377344 11.2435134,24.2379882 11.5222592,24.1054114 C11.641662,23.2161294 11.9667608,22.5329617 12.497277,22.0554205 C11.7411294,21.9759581 11.0613075,21.8562765 10.4574629,21.6971426 C9.85396674,21.5377995 9.2303262,21.2791982 8.58695945,20.9206415 C7.94324419,20.5625727 7.40924282,20.1179317 6.98481595,19.5874852 C6.56031936,19.0567599 6.21193941,18.36 5.94016401,17.4978328 C5.6682492,16.6353171 5.53225695,15.640364 5.53225695,14.5126948 C5.53225695,12.9070661 6.05643007,11.5407308 7.1045672,10.4129221 C6.61357312,9.20579043 6.6599262,7.85255945 7.24376583,6.35336856 C7.62853121,6.23382642 8.19912711,6.32353531 8.95527472,6.62193759 C9.71156173,6.92047927 10.2652893,7.17622278 10.617015,7.38826196 C10.9687408,7.60023144 11.2505535,7.77985831 11.4628715,7.92553941 C12.6969786,7.58071435 13.970538,7.40826697 15.2838984,7.40826697 C16.5972588,7.40826697 17.871097,7.58071435 19.1052738,7.92553941 L19.8614911,7.44813759 C20.3786241,7.12959089 20.9892998,6.83767107 21.6920542,6.57230843 C22.3952269,6.30708519 22.9329226,6.23403554 23.3045836,6.35357768 C23.9013882,7.85283827 23.9545722,9.20599954 23.4634387,10.4131312 C24.5115062,11.5409399 25.0358884,12.9076237 25.0358884,14.5129039 C25.0358884,15.6405731 24.8994082,16.6386629 24.6279116,17.5078005 C24.3560665,18.3770774 24.0046893,19.0731403 23.5736405,19.5974528 C23.1421039,20.1216957 22.604687,20.5628515 21.9613203,20.9208506 C21.3178141,21.2791285 20.6939645,21.5377298 20.0904683,21.6970729 C19.4866934,21.8564159 18.8068715,21.9761672 18.0507239,22.055769 C18.740374,22.6525736 19.0852688,23.5946214 19.0852688,24.8814943 L19.0852688,29.0802465 C19.0852688,29.3187731 19.1682164,29.5179171 19.334251,29.677051 C19.5000765,29.8359062 19.761954,29.8826774 20.1202319,29.8161103 C23.198564,28.7947394 25.7094369,26.9539298 27.65299,24.2937513 C29.5963339,21.6337818 30.5683544,18.6389549 30.5683544,15.3085039 C30.5676574,12.5363112 29.8840018,9.97936401 28.5180847,7.63766241 Z" id="Path"></path>
                                </g>
                            </g>
                        </g>
                    </g>
                </g>
            </g>
        </g>
    </g>
</svg>