<?xml version="1.0" encoding="UTF-8"?>
<svg width="272px" height="256px" viewBox="0 0 272 256" version="1.1" xmlns="http://www.w3.org/2000/svg" xmlns:xlink="http://www.w3.org/1999/xlink">
    <!-- Generator: Sketch 52.5 (67469) - http://www.bohemiancoding.com/sketch -->
    <title>noun_inclusiveness_569912</title>
    <desc>Created with Sketch.</desc>
    <g id="Page-1" stroke="none" stroke-width="1" fill="none" fill-rule="evenodd">
        <g id="noun_inclusiveness_569912" transform="translate(-21.000000, -28.000000)" fill="#FFFFFF">
            <g id="Group" transform="translate(21.000000, 138.000000)">
                <path d="M177.886,96.299 C152.188,141.978 95.048,159.132 49.048,134.012 C21.27,118.842 4.029,91.725 0.313,62.549 L0.319,62.546 C11.945,101.27 33.348,112.084 47.833,117.822 C62.318,123.56 73.712,121.363 73.712,121.363 C90.721,117.618 97.541,102.531 104.056,90.159 C110.571,77.787 125.307,71.601 136.67,66.704 C148.033,61.807 153.641,45.806 153.641,45.806 C166.349,56.125 159.635,66.217 156.148,73.485 C152.661,80.753 141.77,90.977 141.77,90.977 C165.204,85.19 171.438,62.286 173.166,53.817 C174.895,45.348 172.557,33.13 170.612,22.253 C168.668,11.376 174.413,6.307 175.36,5.457 C176.307,4.607 177.717,3.204 178.621,8.767 C179.526,14.329 181.33,11.614 185.847,40.469 C190.364,69.324 180.186,92.086 180.186,92.086 C180.186,92.086 179.046,94.237 177.886,96.299 Z" id="Path"></path>
                <path d="M186.2,79.6 C186.2,79.6 190.772,65.041 192.335,49.804 C193.898,34.567 192.038,12.633 187.929,2.184 C187.929,2.184 187.186,0.008 186.194,1.236 C185.202,2.464 180.568,4.761 181.321,10.16 C181.321,10.16 185.585,25.039 186.314,32.839 C186.314,32.838 190.871,58.819 186.2,79.6 Z" id="Path"></path>
                <path d="M192.555,61.187 C192.555,61.187 204.028,31.928 197.804,6.789 C197.804,6.789 196.772,3.669 195.077,5.3 C193.382,6.931 191.616,9.575 192.17,12.981 C192.724,16.387 196.691,37.701 192.555,61.187 Z" id="Path"></path>
            </g>
            <g id="Group" transform="translate(87.000000, 28.000000)">
                <path d="M35.702,36.088 C68.728,-4.61 127.941,-11.893 169.052,20.616 C193.878,40.248 206.305,69.882 205.053,99.267 L205.046,99.269 C200.11,59.14 180.834,44.876 167.522,36.779 C154.21,28.682 142.609,28.929 142.609,28.929 C125.212,29.755 115.949,43.478 107.443,54.576 C98.937,65.674 83.37,69.289 71.344,72.202 C59.318,75.115 51.095,89.943 51.095,89.943 C40.307,77.631 48.625,68.814 53.286,62.237 C57.947,55.66 70.405,47.417 70.405,47.417 C46.331,49.174 36.328,70.7 33.198,78.757 C30.068,86.814 30.314,99.251 30.398,110.3 C30.482,121.349 23.966,125.378 22.889,126.057 C21.812,126.736 20.186,127.881 20.232,122.245 C20.277,116.61 18.041,118.982 18.45,89.779 C18.859,60.576 32.725,39.854 32.725,39.854 C32.725,39.854 34.211,37.925 35.702,36.088 Z" id="Path"></path>
                <path d="M24.693,51.148 C24.693,51.148 17.734,64.729 13.627,79.485 C9.52,94.241 7.659,116.174 9.948,127.167 C9.948,127.167 10.314,129.437 11.499,128.393 C12.684,127.35 17.638,125.866 17.806,120.418 C17.806,120.418 16.109,105.033 16.705,97.222 C16.704,97.222 16.589,70.845 24.693,51.148 Z" id="Path"></path>
                <path d="M15.328,68.227 C15.328,68.227 -0.91,95.135 0.991,120.964 C0.991,120.964 1.482,124.213 3.428,122.891 C5.374,121.569 7.56,119.26 7.588,115.81 C7.615,112.359 7.294,90.681 15.328,68.227 Z" id="Path"></path>
            </g>
        </g>
    </g>
</svg>