<?xml version="1.0" encoding="UTF-8"?>
<svg width="1200px" height="552px" viewBox="0 0 1200 552" version="1.1" xmlns="http://www.w3.org/2000/svg" xmlns:xlink="http://www.w3.org/1999/xlink">
    <!-- Generator: Sketch 52.5 (67469) - http://www.bohemiancoding.com/sketch -->
    <title>lines_pattern</title>
    <desc>Created with Sketch.</desc>
    <g id="Page-1" stroke="none" stroke-width="1" fill="none" fill-rule="evenodd">
        <g id="Homepage" transform="translate(0.000000, -16.000000)">
            <g id="lines_pattern" transform="translate(-268.000000, 16.000000)">
                <rect id="Rectangle" fill="#00B019" x="30" y="144" width="272" height="8"></rect>
                <rect id="Rectangle" fill="#FFEA1D" x="174" y="164" width="272" height="8"></rect>
                <rect id="Rectangle" fill="#00B019" x="94" y="184" width="272" height="8"></rect>
                <rect id="Rectangle" fill="#004FE5" x="14" y="204" width="272" height="8"></rect>
                <rect id="Rectangle" fill="#FFE01F" x="28" y="224" width="272" height="8"></rect>
                <polygon id="Rectangle" fill="#00B019" points="48 244 275.78125 244 320 244 320 252 287.78125 252 48 252"></polygon>
                <polygon id="Rectangle" fill="#004FE5" points="26 264 253.78125 264 298 264 298 272 265.78125 272 26 272"></polygon>
                <polygon id="Rectangle" fill="#00B019" points="6 284 233.78125 284 278 284 278 292 245.78125 292 6 292"></polygon>
                <polygon id="Rectangle" fill="#FFE01F" points="44 304 271.78125 304 316 304 316 312 283.78125 312 44 312"></polygon>
                <polygon id="Rectangle" fill="#00B019" points="14 324 241.78125 324 286 324 286 332 253.78125 332 14 332"></polygon>
                <polygon id="Rectangle" fill="#FFE01F" points="0 344 227.78125 344 272 344 272 352 239.78125 352 0 352"></polygon>
                <polygon id="Rectangle" fill="#00B019" points="22 364 249.78125 364 294 364 294 372 261.78125 372 22 372"></polygon>
                <polygon id="Rectangle" fill="#004FE5" points="58 384 285.78125 384 330 384 330 392 297.78125 392 58 392"></polygon>
                <polygon id="Rectangle" fill="#00B019" points="4 404 231.78125 404 276 404 276 412 243.78125 412 4 412"></polygon>
                <polygon id="Rectangle" fill="#004FE5" points="27 424 254.78125 424 299 424 299 432 266.78125 432 27 432"></polygon>
                <polygon id="Rectangle" fill="#FFE01F" points="17 444 244.78125 444 289 444 289 452 256.78125 452 17 452"></polygon>
                <polygon id="Rectangle" fill="#004FE5" points="57 464 284.78125 464 329 464 329 472 296.78125 472 57 472"></polygon>
                <polygon id="Rectangle" fill="#004FE5" points="9 484 236.78125 484 281 484 281 492 248.78125 492 9 492"></polygon>
                <polygon id="Rectangle" fill="#FFE01F" points="25 504 252.78125 504 297 504 297 512 264.78125 512 25 512"></polygon>
                <polygon id="Rectangle" fill="#004FE5" points="9 524 236.78125 524 281 524 281 532 248.78125 532 9 532"></polygon>
                <polygon id="Rectangle" fill="#00B019" points="76 544 303.78125 544 348 544 348 552 315.78125 552 76 552"></polygon>
                <rect id="Rectangle-Copy-11" fill="#FFFFFF" x="1448" y="40" width="272" height="8"></rect>
                <rect id="Rectangle-Copy-11" fill="#FFFFFF" x="1443" y="0" width="272" height="8"></rect>
                <rect id="Rectangle-Copy-2" fill="#00B019" x="162" y="104" width="272" height="8"></rect>
                <rect id="Rectangle-Copy-3" fill="#004FE5" x="190" y="84" width="272" height="8"></rect>
                <rect id="Rectangle-Copy-4" fill="#004FE5" x="132" y="64" width="272" height="8"></rect>
                <rect id="Rectangle-Copy-5" fill="#00B019" x="69" y="44" width="272" height="8"></rect>
                <rect id="Rectangle-Copy-6" fill="#FFE01F" x="37" y="24" width="272" height="8"></rect>
                <rect id="Rectangle-Copy-7" fill="#FFFFFF" x="91" y="4" width="272" height="8"></rect>
                <rect id="Rectangle-Copy-11" fill="#FFE01F" x="1443" y="0" width="272" height="8"></rect>
                <rect id="Rectangle-Copy-11" fill="#00B019" x="1457" y="20" width="272" height="8"></rect>
                <rect id="Rectangle-Copy-11" fill="#00B019" x="1424" y="40" width="272" height="8"></rect>
                <rect id="Rectangle-Copy-11" fill="#FFE01F" x="1348" y="60" width="272" height="8"></rect>
                <rect id="Rectangle-Copy-11" fill="#004FE5" x="1439" y="80" width="272" height="8"></rect>
                <rect id="Rectangle-Copy-11" fill="#00B019" x="1384" y="100" width="272" height="8"></rect>
                <rect id="Rectangle-Copy-11" fill="#FFE01F" x="1413" y="120" width="272" height="8"></rect>
                <rect id="Rectangle-Copy-11" fill="#00B019" x="1449" y="140" width="272" height="8"></rect>
                <rect id="Rectangle-Copy-11" fill="#FFE01F" x="1429" y="160" width="272" height="8"></rect>
                <rect id="Rectangle-Copy-11" fill="#FFE01F" x="1401" y="300" width="272" height="8"></rect>
                <rect id="Rectangle-Copy-11" fill="#00B019" x="1375" y="320" width="272" height="8"></rect>
                <rect id="Rectangle-Copy-11" fill="#004FE5" x="1441" y="340" width="272" height="8"></rect>
                <rect id="Rectangle-Copy-11" fill="#00B019" x="1453" y="360" width="272" height="8"></rect>
                <rect id="Rectangle-Copy-11" fill="#004FE5" x="1406" y="380" width="272" height="8"></rect>
                <rect id="Rectangle-Copy-11" fill="#FFE01F" x="1430" y="400" width="272" height="8"></rect>
                <rect id="Rectangle-Copy-11" fill="#004FE5" x="1303" y="420" width="272" height="8"></rect>
                <rect id="Rectangle-Copy-11" fill="#00B019" x="1396" y="440" width="272" height="8"></rect>
                <rect id="Rectangle-Copy-11" fill="#FFE01F" x="1439" y="460" width="272" height="8"></rect>
                <rect id="Rectangle-Copy-11" fill="#00B019" x="1454" y="480" width="272" height="8"></rect>
                <rect id="Rectangle-Copy-11" fill="#004FE5" x="1422" y="500" width="272" height="8"></rect>
            </g>
        </g>
    </g>
</svg>