<?xml version="1.0" encoding="UTF-8"?>
<svg width="125px" height="518px" viewBox="0 0 125 518" version="1.1" xmlns="http://www.w3.org/2000/svg" xmlns:xlink="http://www.w3.org/1999/xlink">
    <!-- Generator: Sketch 52.5 (67469) - http://www.bohemiancoding.com/sketch -->
    <title>lines_pattern_right</title>
    <desc>Created with Sketch.</desc>
    <defs>
        <rect id="path-1" x="0" y="0" width="146" height="670"></rect>
    </defs>
    <g id="Experiments" stroke="none" stroke-width="1" fill="none" fill-rule="evenodd">
        <g id="Homepage" transform="translate(-1075.000000, -30.000000)">
            <g id="lines_pattern_right" transform="translate(1056.000000, 0.000000)">
                <mask id="mask-2" fill="white">
                    <use xlink:href="#path-1"></use>
                </mask>
                <g id="Mask"></g>
                <g id="pattern_right" mask="url(#mask-2)">
                    <g transform="translate(197.000000, 120.000000) rotate(-25.000000) translate(-197.000000, -120.000000) translate(-11.000000, 16.000000)">
                        <rect id="Rectangle-Copy-11" fill="#004FE5" x="130" y="0" width="272" height="6"></rect>
                        <rect id="Rectangle-Copy-11" fill="#0A891D" x="144" y="18" width="272" height="6"></rect>
                        <rect id="Rectangle-Copy-11" fill="#FFE01F" x="111" y="36" width="272" height="6"></rect>
                        <rect id="Rectangle-Copy-11" fill="#004FE5" x="35" y="54" width="272" height="6"></rect>
                        <rect id="Rectangle-Copy-11" fill="#0A891D" x="126" y="72" width="272" height="6"></rect>
                        <rect id="Rectangle-Copy-11" fill="#004FE5" x="71" y="90" width="272" height="6"></rect>
                        <rect id="Rectangle-Copy-11" fill="#FFE01F" x="100" y="108" width="272" height="6"></rect>
                        <rect id="Rectangle-Copy-23" fill="#004FE5" x="49" y="126" width="272" height="6"></rect>
                        <rect id="Rectangle-Copy-24" fill="#0A891D" x="82" y="144" width="272" height="6"></rect>
                        <rect id="Rectangle-Copy-24" fill="#004FE5" x="96" y="180" width="272" height="6"></rect>
                        <rect id="Rectangle-Copy-22" fill="#004FE5" opacity="0" x="0" y="200" width="272" height="8"></rect>
                    </g>
                </g>
                <g id="Group-19" mask="url(#mask-2)">
                    <g transform="translate(218.138245, 414.615988) rotate(-25.000000) translate(-218.138245, -414.615988) translate(38.138245, 311.115988)" id="Rectangle-Copy-11">
                        <rect fill="#FFE01F" x="87" y="0.29714992" width="272" height="6"></rect>
                        <rect fill="#0A891D" x="40" y="20.2971499" width="272" height="6"></rect>
                        <rect fill="#004FE5" x="74.6374212" y="40.2971499" width="272" height="6"></rect>
                        <rect fill="#0A891D" x="86.6374212" y="60.2971499" width="272" height="6"></rect>
                        <rect fill="#004FE5" x="39.6374212" y="80.2971499" width="272" height="6"></rect>
                        <rect fill="#FFE01F" x="63.6374212" y="100.29715" width="272" height="6"></rect>
                        <rect fill="#004FE5" x="73" y="120.29715" width="272" height="6"></rect>
                        <rect fill="#0A891D" x="29.6374212" y="140.29715" width="272" height="6"></rect>
                        <rect fill="#004FE5" x="0" y="160.29715" width="272" height="6"></rect>
                    </g>
                </g>
            </g>
        </g>
    </g>
</svg>