<?xml version="1.0" encoding="UTF-8"?>
<svg width="29px" height="28px" viewBox="0 0 29 28" version="1.1" xmlns="http://www.w3.org/2000/svg" xmlns:xlink="http://www.w3.org/1999/xlink">
    <!-- Generator: Sketch 52.5 (67469) - http://www.bohemiancoding.com/sketch -->
    <title>linkedin_icon</title>
    <desc>Created with Sketch.</desc>
    <g id="SVG-Experiments" stroke="none" stroke-width="1" fill="none" fill-rule="evenodd">
        <g id="Homepage" transform="translate(-630.000000, -3841.000000)" fill="#FFFFFF" fill-rule="nonzero">
            <g id="Group-24" transform="translate(-304.000000, 3459.000000)">
                <g id="Group-23">
                    <g id="Group-22" transform="translate(0.000000, 57.000000)">
                        <g id="Group-12" transform="translate(673.000000, 304.000000)">
                            <g id="Group-9" transform="translate(240.000000, 0.000000)">
                                <g id="linkedin_icon" transform="translate(21.600000, 21.600000)">
                                    <path d="M27.6537551,16.2368897 L27.6537551,26.4606594 L21.72666,26.4606594 L21.72666,16.9216161 C21.72666,14.5253307 20.8693696,12.8899596 18.7239576,12.8899596 C17.0862077,12.8899596 16.1115815,13.9920799 15.6828077,15.0581958 C15.5264458,15.439328 15.486198,15.9698142 15.486198,16.5033222 L15.486198,26.4606594 L9.55710978,26.4606594 C9.55710978,26.4606594 9.63696239,10.3046511 9.55710978,8.6307681 L15.4856194,8.6307681 L15.4856194,11.1580838 C15.4735965,11.1769861 15.4579731,11.1973672 15.4466575,11.2156909 L15.4856194,11.2156909 L15.4856194,11.1580838 C16.2732798,9.94492856 17.6799587,8.21189553 20.8285432,8.21189553 C24.7294266,8.21183124 27.6537551,10.7602353 27.6537551,16.2368897 Z M3.35503108,0.035875809 C1.3266977,0.035875809 0,1.36630254 0,3.11585902 C0,4.82728941 1.28831445,6.1980925 3.27633576,6.1980925 L3.31594059,6.1980925 C5.38355733,6.1980925 6.66942862,4.82754659 6.66942862,3.11585902 C6.63046672,1.36630254 5.38355733,0.035875809 3.35503108,0.035875809 Z M0.352135853,26.4606594 L6.27897381,26.4606594 L6.27897381,8.6307681 L0.352135853,8.6307681 L0.352135853,26.4606594 Z" id="LinkedIn"></path>
                                </g>
                            </g>
                        </g>
                    </g>
                </g>
            </g>
        </g>
    </g>
</svg>