<svg width="144" height="37" viewBox="0 0 144 37" fill="none" xmlns="http://www.w3.org/2000/svg">
<path d="M6.83594 10.6406L7.04688 13.5703C8.85938 11.3047 11.2891 10.1719 14.3359 10.1719C17.0234 10.1719 19.0234 10.9609 20.3359 12.5391C21.6484 14.1172 22.3203 16.4766 22.3516 19.6172V36H15.5781V19.7812C15.5781 18.3438 15.2656 17.3047 14.6406 16.6641C14.0156 16.0078 12.9766 15.6797 11.5234 15.6797C9.61719 15.6797 8.1875 16.4922 7.23438 18.1172V36H0.460938V10.6406H6.83594Z" fill="white"/>
<path d="M37.0563 36H30.2594V10.6406H37.0563V36ZM29.8609 4.07812C29.8609 3.0625 30.1969 2.22656 30.8688 1.57031C31.5563 0.914062 32.4859 0.585938 33.6578 0.585938C34.8141 0.585938 35.7359 0.914062 36.4234 1.57031C37.1109 2.22656 37.4547 3.0625 37.4547 4.07812C37.4547 5.10938 37.1031 5.95312 36.4 6.60938C35.7125 7.26562 34.7984 7.59375 33.6578 7.59375C32.5172 7.59375 31.5953 7.26562 30.8922 6.60938C30.2047 5.95312 29.8609 5.10938 29.8609 4.07812Z" fill="white"/>
<path d="M53.1672 4.40625V10.6406H57.5031V15.6094H53.1672V28.2656C53.1672 29.2031 53.3469 29.875 53.7062 30.2812C54.0656 30.6875 54.7531 30.8906 55.7687 30.8906C56.5187 30.8906 57.1828 30.8359 57.7609 30.7266V35.8594C56.4328 36.2656 55.0656 36.4688 53.6594 36.4688C48.9094 36.4688 46.4875 34.0703 46.3937 29.2734V15.6094H42.6906V10.6406H46.3937V4.40625H53.1672Z" fill="white"/>
<path d="M70.825 36H64.0281V10.6406H70.825V36ZM63.6297 4.07812C63.6297 3.0625 63.9656 2.22656 64.6375 1.57031C65.325 0.914062 66.2547 0.585938 67.4266 0.585938C68.5828 0.585938 69.5047 0.914062 70.1922 1.57031C70.8797 2.22656 71.2234 3.0625 71.2234 4.07812C71.2234 5.10938 70.8719 5.95312 70.1687 6.60938C69.4812 7.26562 68.5672 7.59375 67.4266 7.59375C66.2859 7.59375 65.3641 7.26562 64.6609 6.60938C63.9734 5.95312 63.6297 5.10938 63.6297 4.07812Z" fill="white"/>
<path d="M92.5609 28.9922C92.5609 28.1641 92.1469 27.5156 91.3187 27.0469C90.5062 26.5625 89.1937 26.1328 87.3812 25.7578C81.35 24.4922 78.3344 21.9297 78.3344 18.0703C78.3344 15.8203 79.2641 13.9453 81.1234 12.4453C82.9984 10.9297 85.4437 10.1719 88.4594 10.1719C91.6781 10.1719 94.2484 10.9297 96.1703 12.4453C98.1078 13.9609 99.0766 15.9297 99.0766 18.3516H92.3031C92.3031 17.3828 91.9906 16.5859 91.3656 15.9609C90.7406 15.3203 89.7641 15 88.4359 15C87.2953 15 86.4125 15.2578 85.7875 15.7734C85.1625 16.2891 84.85 16.9453 84.85 17.7422C84.85 18.4922 85.2016 19.1016 85.9047 19.5703C86.6234 20.0234 87.8266 20.4219 89.5141 20.7656C91.2016 21.0938 92.6234 21.4688 93.7797 21.8906C97.3578 23.2031 99.1469 25.4766 99.1469 28.7109C99.1469 31.0234 98.1547 32.8984 96.1703 34.3359C94.1859 35.7578 91.6234 36.4688 88.4828 36.4688C86.3578 36.4688 84.4672 36.0938 82.8109 35.3438C81.1703 34.5781 79.8812 33.5391 78.9437 32.2266C78.0062 30.8984 77.5375 29.4688 77.5375 27.9375H83.9594C84.0219 29.1406 84.4672 30.0625 85.2953 30.7031C86.1234 31.3438 87.2328 31.6641 88.6234 31.6641C89.9203 31.6641 90.8969 31.4219 91.5531 30.9375C92.225 30.4375 92.5609 29.7891 92.5609 28.9922Z" fill="white"/>
<path d="M112.539 13.4062C114.336 11.25 116.594 10.1719 119.312 10.1719C124.812 10.1719 127.602 13.3672 127.68 19.7578V36H120.906V19.9453C120.906 18.4922 120.594 17.4219 119.969 16.7344C119.344 16.0312 118.305 15.6797 116.852 15.6797C114.867 15.6797 113.43 16.4453 112.539 17.9766V36H105.766V0H112.539V13.4062Z" fill="white"/>
<path d="M135.541 32.6719C135.541 31.5938 135.9 30.7188 136.619 30.0469C137.353 29.375 138.267 29.0391 139.361 29.0391C140.47 29.0391 141.384 29.375 142.103 30.0469C142.837 30.7188 143.205 31.5938 143.205 32.6719C143.205 33.7344 142.845 34.6016 142.127 35.2734C141.408 35.9297 140.486 36.2578 139.361 36.2578C138.252 36.2578 137.337 35.9297 136.619 35.2734C135.9 34.6016 135.541 33.7344 135.541 32.6719Z" fill="white"/>
</svg>
