<?xml version="1.0" encoding="UTF-8"?>
<svg width="30px" height="22px" viewBox="0 0 30 22" version="1.1" xmlns="http://www.w3.org/2000/svg" xmlns:xlink="http://www.w3.org/1999/xlink">
    <!-- Generator: Sketch 52.5 (67469) - http://www.bohemiancoding.com/sketch -->
    <title>medium_icon</title>
    <desc>Created with Sketch.</desc>
    <g id="SVG-Experiments" stroke="none" stroke-width="1" fill="none" fill-rule="evenodd">
        <g id="Homepage" transform="translate(-510.000000, -3845.000000)" fill="#FFFFFF">
            <g id="Group-24" transform="translate(-304.000000, 3459.000000)">
                <g id="Group-23">
                    <g id="Group-22" transform="translate(0.000000, 57.000000)">
                        <g id="Group-12" transform="translate(673.000000, 304.000000)">
                            <g id="Group-11" transform="translate(120.000000, 0.000000)">
                                <g id="medium_icon" transform="translate(21.600000, 25.200000)">
                                    <path d="M28.7916694,3.1147438 L27.2029686,3.1147438 C26.7892959,3.1147438 25.7068562,3.56411901 25.7068562,3.94667107 L25.7068562,17.8389223 C25.7068562,18.2224264 26.7892959,18.5368463 27.2029686,18.5368463 L28.7916694,18.5368463 L28.7916694,21.621243 L18.5088793,21.621243 L18.5088793,18.5368463 L20.5659372,18.5368463 L20.5659372,4.14238017 L20.2079603,4.14238017 L15.2580496,21.6211835 L11.4256264,21.6211835 L6.53974215,4.14238017 L6.16968595,4.14238017 L6.16968595,18.5367868 L8.22585124,18.5367868 L8.22585124,21.6211835 L0,21.621243 L0,18.5367868 L1.14087273,18.5367868 C1.58876033,18.5367868 2.05622479,18.2224264 2.05622479,17.8388628 L2.05622479,3.94667107 C2.05622479,3.5640595 1.58881983,3.1147438 1.14087273,3.1147438 L0,3.1147438 L0,0.0299900826 L10.6604628,0.0299900826 L14.1412165,12.3676959 L14.234876,12.3676959 L17.7499636,0.0299900826 L28.7916694,0.0299900826 L28.7916694,3.1147438 Z" id="Path"></path>
                                </g>
                            </g>
                        </g>
                    </g>
                </g>
            </g>
        </g>
    </g>
</svg>