<?xml version="1.0" encoding="UTF-8"?>
<svg width="80px" height="80px" viewBox="0 0 80 80" version="1.1" xmlns="http://www.w3.org/2000/svg" xmlns:xlink="http://www.w3.org/1999/xlink">
    <!-- Generator: Sketch 52.5 (67469) - http://www.bohemiancoding.com/sketch -->
    <title>new_tab_icon</title>
    <desc>Created with Sketch.</desc>
    <g id="Page-1" stroke="none" stroke-width="1" fill="none" fill-rule="evenodd" fill-opacity="0.7">
        <g id="new_tab_icon" fill="#FFFFFF">
            <path d="M73.333,0 L26.667,0 C23.001,0 20,2.998 20,6.667 L20,53.334 C20,56.998 23.001,60 26.667,60 L73.333,60 C76.999,60 80,56.998 80,53.334 L80,6.667 C80,2.998 76.999,0 73.333,0 Z M73.333,53.334 L26.667,53.334 L26.667,6.667 L73.333,6.667 L73.333,53.334 Z" id="Shape" fill-rule="nonzero"></path>
            <path d="M33.333,43.125 L36.862,46.666 L61.663,21.869 L61.66,30 L66.667,30.003 L66.66,16.667 C66.663,14.828 65.173,13.337 63.33,13.334 L49.997,13.334 L49.997,18.334 L58.122,18.337 L33.333,43.125 Z" id="Path"></path>
            <path d="M33.333,66.666 L33.333,73.334 L6.667,73.334 L6.667,46.666 L13.333,46.666 L13.333,40 L3.333,40 C1.501,40 0,41.5 0,43.334 L0,76.666 C0,78.499 1.501,80 3.333,80 L36.667,80 C38.499,80 40,78.499 40,76.666 L40,66.666 L33.333,66.666 Z" id="Path"></path>
        </g>
    </g>
</svg>