<?xml version="1.0" encoding="UTF-8"?>
<svg width="140px" height="55px" viewBox="0 0 140 55" version="1.1" xmlns="http://www.w3.org/2000/svg" xmlns:xlink="http://www.w3.org/1999/xlink">
    <!-- Generator: Sketch 52.5 (67469) - http://www.bohemiancoding.com/sketch -->
    <title>nitish_logo</title>
    <desc>Created with Sketch.</desc>
    <g id="About-Me" stroke="none" stroke-width="1" fill="none" fill-rule="evenodd" fill-opacity="0.87">
        <g id="Custom-Preset" transform="translate(-261.000000, -185.000000)" fill="#000000">
            <path d="M268.24,225.04 C268.613335,224.986666 268.933332,224.813335 269.2,224.52 C269.466668,224.226665 269.759998,223.973334 270.08,223.76 C271.466674,222.533327 272.799994,221.306673 274.08,220.08 C275.360006,218.853327 276.853325,217.733338 278.56,216.72 C279.14667,216.346665 279.81333,215.946669 280.56,215.52 C281.30667,215.093331 282.05333,214.853334 282.8,214.8 C283.333336,214.8 283.906664,214.999998 284.52,215.4 C285.133336,215.800002 285.466666,216.239998 285.52,216.72 C285.573334,217.30667 285.506668,217.919997 285.32,218.56 C285.133332,219.200003 284.960001,219.81333 284.8,220.4 C284.746666,220.826669 284.626668,221.519995 284.44,222.48 C284.253332,223.440005 284.066668,224.453328 283.88,225.52 C283.693332,226.586672 283.546667,227.599995 283.44,228.56 C283.333333,229.520005 283.306666,230.213331 283.36,230.64 C283.840002,230.426666 284.266665,230.240001 284.64,230.08 C285.013335,229.919999 285.466664,229.706668 286,229.44 C286.58667,229.173332 286.946666,229.013334 287.08,228.96 C287.213334,228.906666 287.306666,228.866667 287.36,228.84 C287.413334,228.813333 287.493333,228.76 287.6,228.68 C287.706667,228.6 288.05333,228.400002 288.64,228.08 C289.013335,227.759998 289.386665,227.453335 289.76,227.16 C290.133335,226.866665 290.506665,226.640001 290.88,226.48 C291.093334,226.373333 291.386665,226.32 291.76,226.32 C292.186669,226.053332 292.599998,225.813334 293,225.6 C293.400002,225.386666 293.733332,225.146668 294,224.88 C294.480002,225.093334 294.72,225.293332 294.72,225.48 C294.72,225.666668 294.666667,225.893332 294.56,226.16 C294.186665,226.640002 293.653337,227.066665 292.96,227.44 C292.639998,227.813335 292.373334,228.106666 292.16,228.32 C291.946666,228.533334 291.653335,228.719999 291.28,228.88 C290.69333,229.360002 290.320001,229.666666 290.16,229.8 C289.999999,229.933334 289.88,230.04 289.8,230.12 C289.72,230.2 289.586668,230.293333 289.4,230.4 C289.213332,230.506667 288.800003,230.773331 288.16,231.2 C287.57333,231.520002 286.920004,231.933331 286.2,232.44 C285.479996,232.946669 284.800003,233.306666 284.16,233.52 C283.626664,233.626667 283.133336,233.706666 282.68,233.76 C282.226664,233.813334 281.813335,233.84 281.44,233.84 C280.85333,233.946667 280.333336,233.640004 279.88,232.92 C279.426664,232.199996 279.2,231.54667 279.2,230.96 C279.2,230.693332 279.279999,230.146671 279.44,229.32 C279.600001,228.493329 279.773332,227.613338 279.96,226.68 C280.146668,225.746662 280.333332,224.853338 280.52,224 C280.706668,223.146662 280.826666,222.560002 280.88,222.24 C280.933334,221.49333 281.039999,220.82667 281.2,220.24 C281.360001,219.65333 281.493333,219.06667 281.6,218.48 C281.173331,218.586667 280.800002,218.773332 280.48,219.04 L279.52,219.84 C278.559995,220.58667 277.626671,221.33333 276.72,222.08 C275.813329,222.82667 274.906671,223.653329 274,224.56 C273.466664,225.040002 272.880003,225.519998 272.24,226 C271.599997,226.480002 270.98667,227.01333 270.4,227.6 C268.586658,229.52001 267.120006,231.119994 266,232.4 C264.879994,233.680006 264.053336,234.373333 263.52,234.48 C263.093331,234.586667 262.600003,234.480002 262.04,234.16 C261.479997,233.839998 261.146667,233.466669 261.04,233.04 C260.986666,232.826666 261.026666,232.506669 261.16,232.08 C261.293334,231.653331 261.439999,231.253335 261.6,230.88 C262.080002,228.639989 262.746662,226.626676 263.6,224.84 C264.453338,223.053324 265.25333,221.20001 266,219.28 C266.106667,219.013332 266.266666,218.720002 266.48,218.4 C266.693334,218.079998 266.853333,217.786668 266.96,217.52 C267.066667,217.146665 267.146666,216.786668 267.2,216.44 C267.253334,216.093332 267.306666,215.786668 267.36,215.52 C267.466667,215.413333 267.586666,215.266668 267.72,215.08 C267.853334,214.893332 267.999999,214.746667 268.16,214.64 C268.74667,214.213331 269.399996,214.106666 270.12,214.32 C270.840004,214.533334 271.253333,214.906664 271.36,215.44 C271.626668,216.080003 271.626668,216.639998 271.36,217.12 C271.093332,217.600002 270.826668,218.053331 270.56,218.48 C270.453333,218.800002 270.4,219.119998 270.4,219.44 C270.4,219.760002 270.346667,220.053332 270.24,220.32 C269.919998,221.06667 269.586668,221.81333 269.24,222.56 C268.893332,223.30667 268.560002,224.133329 268.24,225.04 Z M297.6,229.12 C297.760001,229.280001 298.21333,229.213335 298.96,228.92 C299.70667,228.626665 300.626661,228.226669 301.72,227.72 C302.813339,227.213331 304.02666,226.640003 305.36,226 C306.69334,225.359997 308.02666,224.800002 309.36,224.32 C309.733335,224.213333 310.173331,224.053334 310.68,223.84 C311.186669,223.626666 311.573332,223.440001 311.84,223.28 L313.12,222.48 C313.546669,222.213332 314.05333,222.026667 314.64,221.92 C314.853334,221.866666 314.96,221.773334 314.96,221.64 C314.96,221.506666 314.986666,221.546666 315.04,221.76 C315.146667,221.813334 315.226666,221.826667 315.28,221.8 C315.333334,221.773333 315.386666,221.786666 315.44,221.84 C315.44,222.053334 315.306668,222.346665 315.04,222.72 L314.48,223.2 C314.053331,223.573335 313.600002,223.933332 313.12,224.28 C312.639998,224.626668 312.10667,224.933332 311.52,225.2 C311.039998,225.626669 310.46667,226.026665 309.8,226.4 C309.13333,226.773335 308.480003,227.119998 307.84,227.44 C307.25333,227.653334 306.413339,228.13333 305.32,228.88 C304.226661,229.62667 303.080006,230.399996 301.88,231.2 C300.679994,232.000004 299.573338,232.706664 298.56,233.32 C297.546662,233.933336 296.853335,234.160001 296.48,234 C296.319999,234.160001 296.213334,234.226667 296.16,234.2 C296.106666,234.173333 296.000001,234.16 295.84,234.16 C294.986662,234.16 294.253336,234.066668 293.64,233.88 C293.026664,233.693332 292.506669,233.30667 292.08,232.72 C291.919999,232.079997 291.919999,231.440003 292.08,230.8 C292.240001,230.159997 292.453332,229.440004 292.72,228.64 C292.880001,228.213331 293.053332,227.813335 293.24,227.44 C293.426668,227.066665 293.573333,226.666669 293.68,226.24 C293.893334,225.813331 294.106666,225.360002 294.32,224.88 C294.533334,224.399998 294.719999,223.946669 294.88,223.52 C295.46667,222.293327 296.079997,221.05334 296.72,219.8 C297.360003,218.54666 298.05333,217.386672 298.8,216.32 C299.226669,216.053332 299.626665,215.893334 300,215.84 C300.213334,215.733333 300.439999,215.746666 300.68,215.88 C300.920001,216.013334 301.119999,216.026667 301.28,215.92 C301.440001,216.133334 301.613332,216.319999 301.8,216.48 C301.986668,216.640001 302.106666,216.853332 302.16,217.12 C302.213334,217.493335 302.253333,217.786666 302.28,218 C302.306667,218.213334 302.266667,218.453332 302.16,218.72 C302.213334,219.093335 302.106668,219.493331 301.84,219.92 C301.733333,220.080001 301.653334,220.253332 301.6,220.44 C301.546666,220.626668 301.466667,220.826666 301.36,221.04 C301.306666,221.093334 301.266667,221.106667 301.24,221.08 C301.213333,221.053333 301.173334,221.066666 301.12,221.12 C301.013333,221.173334 300.96,221.253333 300.96,221.36 C300.96,221.466667 300.906667,221.546666 300.8,221.6 C300.426665,222.34667 300.026669,223.119996 299.6,223.92 C299.173331,224.720004 298.773335,225.479996 298.4,226.2 C298.026665,226.920004 297.760001,227.546664 297.6,228.08 C297.439999,228.613336 297.439999,228.959999 297.6,229.12 Z M300.88,209.6 C300.826666,209.439999 300.959998,209.146669 301.28,208.72 C301.600002,208.293331 301.973331,207.893335 302.4,207.52 C302.826669,207.146665 303.253331,206.880001 303.68,206.72 C304.106669,206.559999 304.453332,206.639998 304.72,206.96 C304.826667,206.96 304.92,206.986666 305,207.04 C305.08,207.093334 305.146666,207.12 305.2,207.12 C305.573335,207.546669 305.693334,208.066664 305.56,208.68 C305.426666,209.293336 305.146669,209.706666 304.72,209.92 C304.773334,210.026667 304.773334,210.093333 304.72,210.12 C304.666666,210.146667 304.64,210.213333 304.64,210.32 C304.479999,210.213333 304.413333,210.266666 304.44,210.48 C304.466667,210.693334 304.373334,210.746667 304.16,210.64 C304.213334,210.800001 304.146668,210.959999 303.96,211.12 C303.773332,211.280001 303.68,211.439999 303.68,211.6 C303.573333,211.546666 303.52,211.533333 303.52,211.56 C303.52,211.586667 303.466667,211.6 303.36,211.6 C303.253333,211.866668 303.026668,212.066666 302.68,212.2 C302.333332,212.333334 302.080001,212.506666 301.92,212.72 C301.813333,212.72 301.72,212.746666 301.64,212.8 C301.56,212.853334 301.413334,212.826667 301.2,212.72 C300.879998,212.613333 300.666667,212.440001 300.56,212.2 C300.453333,211.959999 300.413333,211.680002 300.44,211.36 C300.466667,211.039998 300.533333,210.720002 300.64,210.4 C300.746667,210.079998 300.826666,209.813334 300.88,209.6 Z M336.188936,203.676766 C336.206135,203.613079 336.231001,203.55706 336.263534,203.508707 C336.248489,203.496612 336.24,203.539817 336.24,203.6 C336.24,203.64261 336.222979,203.668199 336.188936,203.676766 Z M336.188936,203.676766 C336.169645,203.748198 336.16,203.829276 336.16,203.92 C336.16,204.133334 336.133334,204.266666 336.08,204.32 C335.813332,204.480001 335.573334,204.56 335.36,204.56 C335.146666,204.56 334.960001,204.613333 334.8,204.72 L334.72,204.88 C332.79999,205.146668 330.706678,205.413332 328.44,205.68 C326.173322,205.946668 324.026677,206.319998 322,206.8 L321.76,207.6 C320.853329,210.426681 319.920005,213.253319 318.96,216.08 C317.999995,218.906681 317.120004,221.733319 316.32,224.56 C316.213333,224.986669 316.053334,225.413331 315.84,225.84 C315.626666,226.266669 315.466667,226.719998 315.36,227.2 C315.093332,227.626669 314.92,228.106664 314.84,228.64 C314.76,229.173336 314.613334,229.653331 314.4,230.08 C314.346666,230.186667 314.253334,230.319999 314.12,230.48 C313.986666,230.640001 313.92,230.799999 313.92,230.96 C313.813333,231.226668 313.733334,231.493332 313.68,231.76 L313.52,232.56 C313.466666,232.826668 313.44,233.119998 313.44,233.44 C313.44,233.760002 313.413334,233.999999 313.36,234.16 L312.88,234.96 C312.773333,235.226668 312.72,235.493332 312.72,235.76 C312.72,236.026668 312.693334,236.293332 312.64,236.56 C312.373332,236.666667 312.266666,236.76 312.32,236.84 C312.373334,236.92 312.266668,236.986666 312,237.04 C311.839999,237.146667 311.613335,237.213333 311.32,237.24 C311.026665,237.266667 310.773334,237.333333 310.56,237.44 L310.48,237.44 C310.053331,237.226666 309.813334,236.986668 309.76,236.72 C309.706666,236.453332 309.68,236.186668 309.68,235.92 C309.786667,233.946657 310.013332,232.026676 310.36,230.16 C310.706668,228.293324 311.093331,226.506675 311.52,224.8 C312.053336,222.71999 312.666663,220.693343 313.36,218.72 C314.053337,216.746657 314.69333,214.746677 315.28,212.72 C315.546668,211.919996 315.799999,211.133337 316.04,210.36 C316.280001,209.586663 316.533332,208.82667 316.8,208.08 C316.106663,208.186667 315.453336,208.333332 314.84,208.52 C314.226664,208.706668 313.466671,209.013331 312.56,209.44 L311.48,209.8 C311.079998,209.933334 310.693335,210.053333 310.32,210.16 C310.159999,210.266667 309.986668,210.399999 309.8,210.56 C309.613332,210.720001 309.413334,210.826666 309.2,210.88 C308.933332,210.933334 308.706668,210.973333 308.52,211 C308.333332,211.026667 308.213334,210.986667 308.16,210.88 C307.893332,210.719999 307.76,210.480002 307.76,210.16 C307.76,209.839998 307.813333,209.466669 307.92,209.04 C308.026667,208.773332 308.146666,208.506668 308.28,208.24 L308.64,207.52 L309.6,207.12 C309.973335,207.013333 310.49333,206.893334 311.16,206.76 C311.82667,206.626666 312.506663,206.480001 313.2,206.32 C313.893337,206.159999 314.53333,206.026667 315.12,205.92 C315.70667,205.813333 316.079999,205.76 316.24,205.76 C316.506668,205.706666 316.759999,205.653334 317,205.6 C317.240001,205.546666 317.493332,205.466667 317.76,205.36 C318.34667,203.706658 318.97333,202.080008 319.64,200.48 C320.30667,198.879992 321.01333,197.253342 321.76,195.6 C322.133335,194.906663 322.466665,194.200004 322.76,193.48 C323.053335,192.759996 323.333332,192.053337 323.6,191.36 C323.866668,190.933331 324.053333,190.533335 324.16,190.16 C324.266667,189.999999 324.32,189.840001 324.32,189.68 C324.32,189.519999 324.373333,189.386667 324.48,189.28 C324.533334,189.013332 324.639999,188.760001 324.8,188.52 C324.960001,188.279999 325.093333,187.973335 325.2,187.6 C325.306667,187.333332 325.4,187.040002 325.48,186.72 C325.56,186.399998 325.679999,186.160001 325.84,186 C325.946667,185.839999 326.29333,185.653334 326.88,185.44 C327.46667,185.226666 327.973331,185.12 328.4,185.12 C328.933336,185.12 329.466664,185.239999 330,185.48 C330.533336,185.720001 330.853333,186.053331 330.96,186.48 C331.066667,186.693334 331.053334,186.919999 330.92,187.16 C330.786666,187.400001 330.613334,187.653332 330.4,187.92 C330.293333,188.133334 330.226667,188.346666 330.2,188.56 C330.173333,188.773334 330.106667,189.013332 330,189.28 C329.41333,190.560006 328.853336,191.86666 328.32,193.2 C327.786664,194.53334 327.173337,195.813327 326.48,197.04 C325.946664,198.213339 325.400003,199.359994 324.84,200.48 C324.279997,201.600006 323.733336,202.746661 323.2,203.92 L323.28,203.92 C323.920003,203.759999 324.559997,203.64 325.2,203.56 C325.840003,203.48 326.45333,203.386667 327.04,203.28 C327.893338,203.173333 328.479998,203.106667 328.8,203.08 C329.120002,203.053333 329.386666,203.053333 329.6,203.08 C329.813334,203.106667 330.093332,203.106667 330.44,203.08 C330.786668,203.053333 331.413329,202.986667 332.32,202.88 C332.90667,202.826666 333.506664,202.786667 334.12,202.76 C334.733336,202.733333 335.386663,202.853332 336.08,203.12 C335.973333,203.226667 335.946666,203.32 336,203.4 C336.053334,203.48 336.106666,203.573333 336.16,203.68 C336.170723,203.68 336.180369,203.678922 336.188936,203.676766 Z M327.52,229.12 C327.680001,229.280001 328.13333,229.213335 328.88,228.92 C329.62667,228.626665 330.546661,228.226669 331.64,227.72 C332.733339,227.213331 333.94666,226.640003 335.28,226 C336.61334,225.359997 337.94666,224.800002 339.28,224.32 C339.653335,224.213333 340.093331,224.053334 340.6,223.84 C341.106669,223.626666 341.493332,223.440001 341.76,223.28 L343.04,222.48 C343.466669,222.213332 343.97333,222.026667 344.56,221.92 C344.773334,221.866666 344.88,221.773334 344.88,221.64 C344.88,221.506666 344.906666,221.546666 344.96,221.76 C345.066667,221.813334 345.146666,221.826667 345.2,221.8 C345.253334,221.773333 345.306666,221.786666 345.36,221.84 C345.36,222.053334 345.226668,222.346665 344.96,222.72 L344.4,223.2 C343.973331,223.573335 343.520002,223.933332 343.04,224.28 C342.559998,224.626668 342.02667,224.933332 341.44,225.2 C340.959998,225.626669 340.38667,226.026665 339.72,226.4 C339.05333,226.773335 338.400003,227.119998 337.76,227.44 C337.17333,227.653334 336.333339,228.13333 335.24,228.88 C334.146661,229.62667 333.000006,230.399996 331.8,231.2 C330.599994,232.000004 329.493338,232.706664 328.48,233.32 C327.466662,233.933336 326.773335,234.160001 326.4,234 C326.239999,234.160001 326.133334,234.226667 326.08,234.2 C326.026666,234.173333 325.920001,234.16 325.76,234.16 C324.906662,234.16 324.173336,234.066668 323.56,233.88 C322.946664,233.693332 322.426669,233.30667 322,232.72 C321.839999,232.079997 321.839999,231.440003 322,230.8 C322.160001,230.159997 322.373332,229.440004 322.64,228.64 C322.800001,228.213331 322.973332,227.813335 323.16,227.44 C323.346668,227.066665 323.493333,226.666669 323.6,226.24 C323.813334,225.813331 324.026666,225.360002 324.24,224.88 C324.453334,224.399998 324.639999,223.946669 324.8,223.52 C325.38667,222.293327 325.999997,221.05334 326.64,219.8 C327.280003,218.54666 327.97333,217.386672 328.72,216.32 C329.146669,216.053332 329.546665,215.893334 329.92,215.84 C330.133334,215.733333 330.359999,215.746666 330.6,215.88 C330.840001,216.013334 331.039999,216.026667 331.2,215.92 C331.360001,216.133334 331.533332,216.319999 331.72,216.48 C331.906668,216.640001 332.026666,216.853332 332.08,217.12 C332.133334,217.493335 332.173333,217.786666 332.2,218 C332.226667,218.213334 332.186667,218.453332 332.08,218.72 C332.133334,219.093335 332.026668,219.493331 331.76,219.92 C331.653333,220.080001 331.573334,220.253332 331.52,220.44 C331.466666,220.626668 331.386667,220.826666 331.28,221.04 C331.226666,221.093334 331.186667,221.106667 331.16,221.08 C331.133333,221.053333 331.093334,221.066666 331.04,221.12 C330.933333,221.173334 330.88,221.253333 330.88,221.36 C330.88,221.466667 330.826667,221.546666 330.72,221.6 C330.346665,222.34667 329.946669,223.119996 329.52,223.92 C329.093331,224.720004 328.693335,225.479996 328.32,226.2 C327.946665,226.920004 327.680001,227.546664 327.52,228.08 C327.359999,228.613336 327.359999,228.959999 327.52,229.12 Z M330.8,209.6 C330.746666,209.439999 330.879998,209.146669 331.2,208.72 C331.520002,208.293331 331.893331,207.893335 332.32,207.52 C332.746669,207.146665 333.173331,206.880001 333.6,206.72 C334.026669,206.559999 334.373332,206.639998 334.64,206.96 C334.746667,206.96 334.84,206.986666 334.92,207.04 C335,207.093334 335.066666,207.12 335.12,207.12 C335.493335,207.546669 335.613334,208.066664 335.48,208.68 C335.346666,209.293336 335.066669,209.706666 334.64,209.92 C334.693334,210.026667 334.693334,210.093333 334.64,210.12 C334.586666,210.146667 334.56,210.213333 334.56,210.32 C334.399999,210.213333 334.333333,210.266666 334.36,210.48 C334.386667,210.693334 334.293334,210.746667 334.08,210.64 C334.133334,210.800001 334.066668,210.959999 333.88,211.12 C333.693332,211.280001 333.6,211.439999 333.6,211.6 C333.493333,211.546666 333.44,211.533333 333.44,211.56 C333.44,211.586667 333.386667,211.6 333.28,211.6 C333.173333,211.866668 332.946668,212.066666 332.6,212.2 C332.253332,212.333334 332.000001,212.506666 331.84,212.72 C331.733333,212.72 331.64,212.746666 331.56,212.8 C331.48,212.853334 331.333334,212.826667 331.12,212.72 C330.799998,212.613333 330.586667,212.440001 330.48,212.2 C330.373333,211.959999 330.333333,211.680002 330.36,211.36 C330.386667,211.039998 330.453333,210.720002 330.56,210.4 C330.666667,210.079998 330.746666,209.813334 330.8,209.6 Z M363.04,222.56 C363.146667,222.56 363.279999,222.546667 363.44,222.52 C363.600001,222.493333 363.786666,222.426667 364,222.32 L364.48,222.32 L364.72,222.24 L365.52,222.24 C366.373338,222.773336 366.680001,223.239998 366.44,223.64 C366.199999,224.040002 365.78667,224.293333 365.2,224.4 C364.666664,224.666668 363.960004,224.959998 363.08,225.28 C362.199996,225.600002 361.320004,225.906665 360.44,226.2 C359.559996,226.493335 358.773337,226.746666 358.08,226.96 C357.386663,227.173334 356.986667,227.28 356.88,227.28 C356.826666,227.28 356.786667,227.293333 356.76,227.32 C356.733333,227.346667 356.666667,227.36 356.56,227.36 C356.453333,227.413334 356.373334,227.44 356.32,227.44 C355.57333,228.933341 355.000002,229.959997 354.6,230.52 C354.199998,231.080003 353.840002,231.519998 353.52,231.84 L353.04,232.24 C351.813327,233.253338 350.746671,234.106663 349.84,234.8 C348.933329,235.493337 348.14667,236.079998 347.48,236.56 C346.81333,237.040002 346.240002,237.426665 345.76,237.72 C345.279998,238.013335 344.853335,238.239999 344.48,238.4 L344.48,238.32 C343.413328,238.90667 342.466671,239.306666 341.64,239.52 C340.813329,239.733334 340.186669,239.84 339.76,239.84 C338.693328,239.84 337.960002,239.613336 337.56,239.16 C337.159998,238.706664 336.96,238.133337 336.96,237.44 C336.96,236.426662 337.426662,235.413338 338.36,234.4 C339.293338,233.386662 340.413327,232.426671 341.72,231.52 C343.026673,230.613329 344.426659,229.800004 345.92,229.08 C347.413341,228.359996 348.719994,227.746669 349.84,227.24 C350.960006,226.733331 351.773331,226.360001 352.28,226.12 C352.786669,225.879999 352.720003,225.839999 352.08,226 L351.76,225.92 C351.066663,225.92 350.133339,225.96 348.96,226.04 C347.786661,226.12 346.666672,226.293332 345.6,226.56 C345.066664,226.666667 344.560002,226.76 344.08,226.84 C343.599998,226.92 342.98667,226.906667 342.24,226.8 L342.32,226.8 C342.266666,226.8 342.226667,226.786667 342.2,226.76 C342.173333,226.733333 342.133334,226.72 342.08,226.72 C341.973333,226.72 341.826668,226.68 341.64,226.6 C341.453332,226.52 341.333334,226.453334 341.28,226.4 L341.36,226.4 C340.933331,226.026665 340.640001,225.653335 340.48,225.28 C340.319999,224.906665 340.24,224.560002 340.24,224.24 C340.24,223.919998 340.306666,223.640001 340.44,223.4 C340.573334,223.159999 340.693333,222.960001 340.8,222.8 C341.066668,222.373331 341.439998,221.946669 341.92,221.52 C342.400002,221.093331 342.986663,220.50667 343.68,219.76 L343.92,219.52 C344.560003,219.093331 345.226663,218.613336 345.92,218.08 C346.613337,217.546664 347.33333,217.053336 348.08,216.6 C348.82667,216.146664 349.586663,215.746668 350.36,215.4 C351.133337,215.053332 351.89333,214.853334 352.64,214.8 L353.2,214.64 C353.520002,214.64 353.866665,214.706666 354.24,214.84 C354.613335,214.973334 354.933332,215.093333 355.2,215.2 C355.466668,215.680002 355.56,216.053332 355.48,216.32 C355.4,216.586668 355.253334,216.773333 355.04,216.88 L354.16,217.36 L354,217.44 C353.839999,217.600001 353.600002,217.733333 353.28,217.84 C353.386667,217.733333 353.293335,217.773332 353,217.96 C352.706665,218.146668 352.426668,218.293333 352.16,218.4 C351.733331,218.826669 351.14667,219.146666 350.4,219.36 C349.65333,219.573334 349.040002,219.839998 348.56,220.16 L347.76,220.64 L346.56,221.6 L345.84,222.16 C345.146663,222.586669 344.533336,223.119997 344,223.76 C344.853338,223.653333 345.626663,223.520001 346.32,223.36 C347.06667,223.253333 347.906662,223.16 348.84,223.08 C349.773338,223 350.693329,222.986666 351.6,223.04 C352.080002,223.093334 352.61333,223.173333 353.2,223.28 C353.78667,223.386667 354.293331,223.573332 354.72,223.84 L354.64,223.84 C355.22667,224.160002 355.533333,224.346666 355.56,224.4 C355.586667,224.453334 355.626666,224.48 355.68,224.48 L355.76,224.64 C355.813334,224.586666 355.866666,224.56 355.92,224.56 C355.973334,224.56 356.04,224.546667 356.12,224.52 C356.2,224.493333 356.266666,224.48 356.32,224.48 L356.72,224.32 L362.4,222.64 C362.560001,222.64 362.773332,222.613334 363.04,222.56 Z M344,233.12 C343.893333,233.226667 343.573336,233.519998 343.04,234 C342.506664,234.480002 342.160001,234.826666 342,235.04 C341.573331,235.306668 341.213335,235.599998 340.92,235.92 C340.626665,236.240002 340.426667,236.479999 340.32,236.64 C340.159999,236.906668 340.239998,237.026667 340.56,237 C340.880002,236.973333 341.279998,236.866668 341.76,236.68 C342.240002,236.493332 342.733331,236.280001 343.24,236.04 C343.746669,235.799999 344.079999,235.626667 344.24,235.52 L344.16,235.52 L346.16,234.4 C347.706674,233.333328 348.85333,232.440004 349.6,231.72 C350.34667,230.999996 351.01333,230.213338 351.6,229.36 L350.64,229.68 C349.039992,230.42667 347.86667,230.973332 347.12,231.32 C346.37333,231.666668 345.760002,231.973332 345.28,232.24 L344.24,233.04 L344,233.12 Z M379.68,223.36 C380.26667,222.559996 380.52,222.080001 380.44,221.92 C380.36,221.759999 380.080002,221.813332 379.6,222.08 C379.119998,222.346668 378.480004,222.759997 377.68,223.32 C376.879996,223.880003 376.053338,224.479997 375.2,225.12 C374.346662,225.760003 373.533337,226.37333 372.76,226.96 C371.986663,227.54667 371.360002,227.999998 370.88,228.32 C369.813328,229.226671 368.800005,230.093329 367.84,230.92 C366.879995,231.746671 365.866672,232.613329 364.8,233.52 C364.533332,233.946669 364.333334,234.2 364.2,234.28 C364.066666,234.36 363.786669,234.426666 363.36,234.48 C363.36,234.693334 363.293334,234.853333 363.16,234.96 C363.026666,235.066667 362.880001,235.16 362.72,235.24 C362.559999,235.32 362.426667,235.4 362.32,235.48 C362.213333,235.56 362.16,235.679999 362.16,235.84 C362.106666,235.946667 362.04,235.973334 361.96,235.92 C361.88,235.866666 361.786667,235.866666 361.68,235.92 C361.68,236.186668 361.560001,236.333333 361.32,236.36 C361.079999,236.386667 360.853334,236.320001 360.64,236.16 C360.426666,235.999999 360.253334,235.773335 360.12,235.48 C359.986666,235.186665 359.999999,234.880002 360.16,234.56 C360.16,232.853325 360.386664,231.386673 360.84,230.16 C361.293336,228.933327 361.733331,227.626674 362.16,226.24 C362.320001,226.079999 362.373334,226 362.32,226 C362.533334,225.25333 362.799998,224.54667 363.12,223.88 C363.440002,223.21333 363.733332,222.480004 364,221.68 C364.106667,221.413332 364.226666,221.120002 364.36,220.8 C364.493334,220.479998 364.613333,220.106669 364.72,219.68 C365.146669,218.773329 365.586664,217.893338 366.04,217.04 C366.493336,216.186662 366.853332,215.280005 367.12,214.32 C367.386668,213.999998 367.613332,213.586669 367.8,213.08 C367.986668,212.573331 368.213332,212.160002 368.48,211.84 C368.533334,211.413331 368.639999,211.053335 368.8,210.76 C368.960001,210.466665 369.146666,210.186668 369.36,209.92 C369.466667,209.653332 369.56,209.386668 369.64,209.12 C369.72,208.853332 369.813333,208.560002 369.92,208.24 L370.88,206.56 C371.573337,204.426656 372.426662,202.520008 373.44,200.84 C374.453338,199.159992 375.386662,197.306677 376.24,195.28 C376.453334,195.226666 376.586666,195.093334 376.64,194.88 C376.693334,194.666666 376.799999,194.480001 376.96,194.32 L377.68,193.6 C378.053335,193.226665 378.319999,192.986667 378.48,192.88 C378.960002,192.613332 379.599996,192.559999 380.4,192.72 C380.773335,192.826667 381,193.093331 381.08,193.52 C381.16,193.946669 381.333332,194.293332 381.6,194.56 C381.546666,194.666667 381.48,194.786666 381.4,194.92 C381.32,195.053334 381.226667,195.173333 381.12,195.28 C381.013333,195.546668 380.933334,195.813332 380.88,196.08 C380.826666,196.346668 380.746667,196.613332 380.64,196.88 C380.533333,197.146668 380.400001,197.413332 380.24,197.68 C380.079999,197.946668 379.946667,198.213332 379.84,198.48 C379.519998,199.06667 379.200002,199.679997 378.88,200.32 C378.559998,200.960003 378.240002,201.57333 377.92,202.16 C377.813333,202.586669 377.626668,203.079997 377.36,203.64 C377.093332,204.200003 376.906667,204.746664 376.8,205.28 C376.693333,205.28 376.653333,205.333333 376.68,205.44 C376.706667,205.546667 376.666667,205.6 376.56,205.6 C376.133331,206.613338 375.733335,207.626662 375.36,208.64 C374.986665,209.653338 374.50667,210.639995 373.92,211.6 C373.493331,212.826673 373.000003,213.986661 372.44,215.08 C371.879997,216.173339 371.386669,217.333327 370.96,218.56 C370.906666,218.56 370.866667,218.586666 370.84,218.64 C370.813333,218.693334 370.773334,218.72 370.72,218.72 C370.72,219.146669 370.640001,219.426666 370.48,219.56 C370.319999,219.693334 370.24,219.919998 370.24,220.24 C370.133333,220.346667 370.04,220.519999 369.96,220.76 C369.88,221.000001 369.813334,221.226666 369.76,221.44 C369.546666,221.920002 369.373334,222.439997 369.24,223 C369.106666,223.560003 368.906668,224.159997 368.64,224.8 C368.533333,225.173335 368.426667,225.533332 368.32,225.88 C368.213333,226.226668 368.106667,226.639998 368,227.12 C368.693337,226.586664 369.466662,225.906671 370.32,225.08 C371.173338,224.253329 372.079995,223.426671 373.04,222.6 C374.000005,221.773329 374.946662,220.973337 375.88,220.2 C376.813338,219.426663 377.706662,218.800002 378.56,218.32 C379.14667,217.999998 379.759997,217.693335 380.4,217.4 C381.040003,217.106665 381.706663,216.906667 382.4,216.8 L383.8,216.8 C384.306669,216.8 384.693332,216.933332 384.96,217.2 C385.066667,217.253334 385.146666,217.333333 385.2,217.44 C385.253334,217.546667 385.333333,217.626666 385.44,217.68 L385.96,218.2 C386.093334,218.333334 386.16,218.533332 386.16,218.8 C386.16,219.120002 386.080001,219.453332 385.92,219.8 C385.759999,220.146668 385.600001,220.506665 385.44,220.88 C384.799997,222.053339 384.213336,223.253327 383.68,224.48 C383.573333,224.640001 383.426668,224.973331 383.24,225.48 C383.053332,225.986669 382.866668,226.519997 382.68,227.08 C382.493332,227.640003 382.333334,228.173331 382.2,228.68 C382.066666,229.186669 382,229.573332 382,229.84 C383.226673,229.519998 384.386661,229.093336 385.48,228.56 C386.573339,228.026664 387.613328,227.480003 388.6,226.92 C389.586672,226.359997 390.519996,225.826669 391.4,225.32 C392.280004,224.813331 393.119996,224.480001 393.92,224.32 L398.88,223.6 C399.520003,223.439999 399.973332,223.453332 400.24,223.64 C400.506668,223.826668 400.400002,224.133331 399.92,224.56 C399.92,224.613334 399.733335,224.653333 399.36,224.68 C398.986665,224.706667 398.8,224.746666 398.8,224.8 C398.106663,225.013334 397.546669,225.279998 397.12,225.6 C396.693331,225.920002 396.10667,226.106666 395.36,226.16 C393.226656,227.066671 391.400008,228.053328 389.88,229.12 C388.359992,230.186672 386.666676,231.279994 384.8,232.4 C384.693333,232.293333 384.64,232.293333 384.64,232.4 C384.64,232.506667 384.586667,232.56 384.48,232.56 C384.319999,232.56 384.213334,232.533334 384.16,232.48 C383.57333,232.746668 382.866671,232.933333 382.04,233.04 C381.213329,233.146667 380.50667,233.040002 379.92,232.72 C379.706666,232.613333 379.546667,232.506667 379.44,232.4 C379.333333,232.293333 379.173334,232.213334 378.96,232.16 C379.013334,232.16 379.04,232.133334 379.04,232.08 C378.986666,232.026666 378.826668,231.973334 378.56,231.92 C378.506666,231.759999 378.426667,231.573334 378.32,231.36 C378.213333,231.146666 378.133334,230.906668 378.08,230.64 C378.08,230.586666 378.093333,230.52 378.12,230.44 C378.146667,230.36 378.133334,230.293334 378.08,230.24 C378.026666,230.026666 377.96,229.840001 377.88,229.68 C377.8,229.519999 377.76,229.360001 377.76,229.2 C377.76,229.093333 377.8,228.973334 377.88,228.84 C377.96,228.706666 378,228.560001 378,228.4 C378.106667,227.866664 378.253332,227.360002 378.44,226.88 C378.626668,226.399998 378.853332,225.86667 379.12,225.28 C379.280001,224.906665 379.439999,224.560002 379.6,224.24 C379.760001,223.919998 379.786667,223.626668 379.68,223.36 Z" id="nitish_logo"></path>
        </g>
    </g>
</svg>