<svg xmlns="http://www.w3.org/2000/svg" data-name="Layer 1" viewBox="0 0 100 125" x="0px" y="0px"><title>Artboard 1 copy 91</title><path d="M48.53,89.93c9.33-.22,20.12-4.21,23.62-13.68,1.67-4.52,1-9.83,1-14.55q0-11,0-21.93c0-5.41.41-10.65-1.79-15.75C65,9.08,43.88,6.85,32.64,17.89c-8.56,8.41-5.86,23.48-5.86,34.33,0,6.31-.25,12.67,0,19,.46,11,11.5,18.26,21.74,18.74,4.83.23,4.82-7.27,0-7.5-7-.33-14.09-5.14-14.24-12.52-.09-4.74,0-9.48,0-14.22V38.4c0-3.21-.42-7,.51-10.07,3.53-11.79,23.26-13.43,29.05-2.88,2.16,3.94,1.88,7.7,1.88,12q0,8.84,0,17.67c0,5.14.33,10.43,0,15.57-.59,8.38-9.91,11.6-17.15,11.77C43.71,82.55,43.7,90.05,48.53,89.93Z"/><path d="M54,43.55v-9c0-4.83-7.5-4.84-7.5,0v9c0,4.83,7.5,4.84,7.5,0Z"/><text x="0" y="115" fill="#000000" font-size="5px" font-weight="bold" font-family="'Helvetica Neue', Helvetica, Arial-Unicode, Arial, Sans-serif">Created by Stella Cohen</text><text x="0" y="120" fill="#000000" font-size="5px" font-weight="bold" font-family="'Helvetica Neue', Helvetica, Arial-Unicode, Arial, Sans-serif">from the Noun Project</text></svg>