<?xml version="1.0" encoding="UTF-8"?>
<svg width="143px" height="57px" viewBox="0 0 143 57" version="1.1" xmlns="http://www.w3.org/2000/svg" xmlns:xlink="http://www.w3.org/1999/xlink">
    <!-- Generator: Sketch 63.1 (92452) - https://sketch.com -->
    <title>personal_logo</title>
    <desc>Created with Sketch.</desc>
    <defs>
        <linearGradient x1="0%" y1="60.045118%" x2="100%" y2="60.045118%" id="linearGradient-1">
            <stop stop-color="#1F53E6" offset="0%"></stop>
            <stop stop-color="#5DC050" offset="100%"></stop>
        </linearGradient>
    </defs>
    <g id="personal_logo" stroke="none" stroke-width="1" fill="none" fill-rule="evenodd">
        <path d="M19.2460586,43.5552985 L19.2460586,30.4724665 C19.2460586,28.7127873 19.7241544,27.3523832 20.680346,26.391254 C21.6365376,25.4301249 22.8530783,24.9495604 24.3299683,24.9495604 C25.7689893,24.9495604 26.9003249,25.4014345 27.723975,26.3051828 C28.5476252,27.2089311 28.9594503,28.4593552 28.9594503,30.0564553 L28.9594503,30.0564553 L28.9594503,43.5552985 L33.2055089,43.5552985 L33.2055089,29.5400278 C33.2055089,26.8144378 32.5262342,24.7487274 31.1676848,23.3428968 C29.8091354,21.9370662 28.012726,21.2341509 25.7784565,21.2341509 C24.1406234,21.2341509 22.7844408,21.5879994 21.7099087,22.2956964 C20.6353766,23.0033935 19.8472286,23.9406139 19.3454647,25.1073577 L19.3454647,25.1073577 L19.0756483,25.1073577 L19.0756483,21.5210551 L15,21.5210551 L15,43.5552985 L19.2460586,43.5552985 Z M41.7300042,18.1212402 C42.4589819,18.1212402 43.0885536,17.870199 43.6187192,17.3681166 C44.1488849,16.8660342 44.4139677,16.2659263 44.4139677,15.5677927 C44.4139677,14.8600956 44.1488849,14.2552059 43.6187192,13.7531236 C43.0885536,13.2510412 42.4589819,13 41.7300042,13 C40.9915592,13 40.3596207,13.2510412 39.8341887,13.7531236 C39.3087567,14.2552059 39.0460407,14.8600956 39.0460407,15.5677927 C39.0460407,16.2659263 39.3087567,16.8660342 39.8341887,17.3681166 C40.3596207,17.870199 40.9915592,18.1212402 41.7300042,18.1212402 Z M43.8317322,43.5552985 L43.8317322,21.5210551 L39.5856736,21.5210551 L39.5856736,43.5552985 L43.8317322,43.5552985 Z M58.0649752,43.8422027 C58.7371495,43.8326392 59.3028173,43.7776492 59.7619786,43.6772328 C60.2211399,43.5768163 60.5737947,43.4787907 60.819943,43.3831559 L60.819943,43.3831559 L60.0530963,39.8398889 C59.9110876,39.8685794 59.7122755,39.9068333 59.45666,39.9546506 C59.2010444,40.002468 58.9028262,40.0263767 58.5620055,40.0263767 C57.8708967,40.0263767 57.2626263,39.8470615 56.7371943,39.4884313 C56.2117623,39.129801 55.9490463,38.3288601 55.9490463,37.0856085 L55.9490463,37.0856085 L55.9490463,24.9639056 L60.4223188,24.9639056 L60.4223188,21.5210551 L55.9490463,21.5210551 L55.9490463,16.2420176 L51.7029877,16.2420176 L51.7029877,21.5210551 L48.507793,21.5210551 L48.507793,24.9639056 L51.7029877,24.9639056 L51.7029877,37.9750116 C51.7029877,39.3043344 51.998839,40.4089156 52.5905417,41.2887552 C53.1822444,42.1685948 53.963292,42.818911 54.9336845,43.2397038 C55.9040769,43.6604967 56.9478405,43.8613296 58.0649752,43.8422027 Z M67.9527535,18.1212402 C68.6817312,18.1212402 69.3113029,17.870199 69.8414685,17.3681166 C70.3716341,16.8660342 70.636717,16.2659263 70.636717,15.5677927 C70.636717,14.8600956 70.3716341,14.2552059 69.8414685,13.7531236 C69.3113029,13.2510412 68.6817312,13 67.9527535,13 C67.2143085,13 66.58237,13.2510412 66.056938,13.7531236 C65.531506,14.2552059 65.26879,14.8600956 65.26879,15.5677927 C65.26879,16.2659263 65.531506,16.8660342 66.056938,17.3681166 C66.58237,17.870199 67.2143085,18.1212402 67.9527535,18.1212402 Z M70.0544815,43.5552985 L70.0544815,21.5210551 L65.8084229,21.5210551 L65.8084229,43.5552985 L70.0544815,43.5552985 Z M84.3161262,44 C86.0770335,44 87.6272946,43.7083141 88.9669095,43.1249422 C90.3065244,42.5415703 91.3526548,41.7382385 92.1053007,40.7149468 C92.8579465,39.6916551 93.2342694,38.5153478 93.2342694,37.186025 C93.2342694,34.1352769 91.2461483,32.1460743 87.2699061,31.2184174 L87.2699061,31.2184174 L83.8048951,30.4150856 C82.6025552,30.1281814 81.729202,29.7623785 81.1848355,29.317677 C80.640469,28.8729755 80.3730194,28.2776492 80.3824866,27.5316983 C80.3730194,26.6805491 80.7730104,25.9848064 81.5824597,25.4444702 C82.391909,24.9041339 83.3978036,24.6339658 84.6001435,24.6339658 C85.9255576,24.6339658 86.9219849,24.9423878 87.5894256,25.5592318 C88.2568662,26.1760759 88.7136607,26.8526917 88.9598091,27.5890791 L88.9598091,27.5890791 L92.8082435,26.900509 C92.3727503,25.1886472 91.4780958,23.8162888 90.12428,22.7834336 C88.7704642,21.7505784 86.9148845,21.2341509 84.5575409,21.2341509 C82.9197078,21.2341509 81.466486,21.5067099 80.1978754,22.0518279 C78.9292647,22.5969459 77.9352042,23.3596329 77.2156937,24.3398889 C76.4961832,25.320145 76.136428,26.4605892 76.136428,27.7612217 C76.136428,29.3200679 76.6192574,30.6159186 77.5849162,31.6487737 C78.550575,32.6816289 80.0558667,33.4275798 82.1007913,33.8866266 L82.1007913,33.8866266 L85.7930162,34.7043036 C87.847408,35.1633503 88.8746039,36.095789 88.8746039,37.5016196 C88.8746039,38.3527688 88.4580452,39.0724202 87.6249277,39.6605738 C86.7918103,40.2487274 85.6794092,40.5428043 84.2877245,40.5428043 C81.6747653,40.5428043 80.1126702,39.4525683 79.601439,37.2720963 L79.601439,37.2720963 L75.497389,37.9032855 C75.8571443,39.8542342 76.8038686,41.3580904 78.337562,42.4148542 C79.8712555,43.4716181 81.8641102,44 84.3161262,44 Z M102.83803,43.5552985 L102.83803,30.4724665 C102.83803,28.7127873 103.330327,27.3523832 104.31492,26.391254 C105.299514,25.4301249 106.54919,24.9495604 108.063949,24.9495604 C109.531371,24.9495604 110.676908,25.3966528 111.500558,26.2908376 C112.324208,27.1850224 112.736033,28.4402283 112.736033,30.0564553 L112.736033,30.0564553 L112.736033,43.5552985 L116.982092,43.5552985 L116.982092,29.5400278 C116.982092,26.7953108 116.298084,24.7248188 114.930067,23.3285516 C113.56205,21.9322844 111.756174,21.2341509 109.512437,21.2341509 C107.8178,21.2341509 106.44505,21.5808268 105.394186,22.2741786 C104.343322,22.9675305 103.562275,23.9119235 103.051043,25.1073577 L103.051043,25.1073577 L102.781227,25.1073577 L102.781227,14.1763073 L98.5919718,14.1763073 L98.5919718,43.5552985 L102.83803,43.5552985 Z M126.159827,43.8278575 C126.936141,43.8278575 127.603582,43.5481259 128.162149,42.9886627 C128.720716,42.4291994 129,41.7525837 129,40.9588154 C129,40.1746105 128.720716,39.5027765 128.162149,38.9433133 C127.603582,38.3838501 126.936141,38.1041185 126.159827,38.1041185 C125.383513,38.1041185 124.716072,38.3838501 124.157505,38.9433133 C123.598938,39.5027765 123.319654,40.1746105 123.319654,40.9588154 C123.319654,41.7525837 123.598938,42.4291994 124.157505,42.9886627 C124.716072,43.5481259 125.383513,43.8278575 126.159827,43.8278575 Z" id="nitish." fill="url(#linearGradient-1)" fill-rule="nonzero"></path>
    </g>
</svg>