<?xml version="1.0" encoding="UTF-8"?>
<svg width="360px" height="160px" viewBox="0 0 360 160" version="1.1" xmlns="http://www.w3.org/2000/svg" xmlns:xlink="http://www.w3.org/1999/xlink">
    <!-- Generator: Sketch 52.5 (67469) - http://www.bohemiancoding.com/sketch -->
    <title>Portfolio White Logo</title>
    <desc>Created with Sketch.</desc>
    <defs>
        <path d="M6.9,13.2 L6.9,16.2 C6.9,16.2 10.2,12.6 15.6,12.6 C22.5,12.6 27.3,17.4 27.3,25.2 L27.3,42 L21.3,42 L21.3,25.2 C21.3,21 18.3,18 14.4,18 C9.9,18 6.9,21 6.9,26.4 L6.9,42 L0.9,42 L0.9,13.2 L6.9,13.2 Z M41.64,13.2 L41.64,42 L35.64,42 L35.64,13.2 L41.64,13.2 Z M42.24,4.2 C42.24,6.3 40.74,7.8 38.64,7.8 C36.54,7.8 35.04,6.3 35.04,4.2 C35.04,2.1 36.54,0.6 38.64,0.6 C40.74,0.6 42.24,2.1 42.24,4.2 Z M53.58,9.6 L53.58,3.6 L58.98,3.6 L58.98,13.2 L64.98,13.2 L64.98,18.6 L58.98,18.6 L58.98,33.54 C58.98,35.7 60.48,37.2 62.58,37.2 C64.08,37.2 65.58,36.6 65.58,36.6 L65.58,42 C65.58,42 63.78,42.6 61.38,42.6 C55.98,42.6 52.98,39.6 52.98,33.6 L52.98,18.6 L47.58,18.6 L47.58,13.2 L50.58,13.2 C52.38,13.2 53.58,12 53.58,9.6 Z M78.72,13.2 L78.72,42 L72.72,42 L72.72,13.2 L78.72,13.2 Z M79.32,4.2 C79.32,6.3 77.82,7.8 75.72,7.8 C73.62,7.8 72.12,6.3 72.12,4.2 C72.12,2.1 73.62,0.6 75.72,0.6 C77.82,0.6 79.32,2.1 79.32,4.2 Z M105.36,16.5 L101.46,20.4 C101.46,20.4 99.3599999,18 96.0599999,18 C93.3599999,18 91.8599999,19.5 91.8599999,21 C91.8599999,26.4 106.56,23.4 106.56,33.6 C106.56,38.4 102.36,42.6 95.7599999,42.6 C88.2599999,42.6 84.6599999,37.5 84.6599999,37.5 L88.5599999,33.6 C88.5599999,33.6 91.2599999,37.2 95.7599999,37.2 C99.0599999,37.2 100.56,35.7 100.56,33.6 C100.56,28.2 85.8599999,31.2 85.8599999,21 C85.8599999,16.8 90.0599999,12.6 96.0599999,12.6 C102.36,12.6 105.36,16.5 105.36,16.5 Z M119.4,0 L119.4,16.2 C119.4,16.2 122.7,12.6 128.1,12.6 C135,12.6 139.8,17.4 139.8,25.2 L139.8,42 L133.8,42 L133.8,25.2 C133.8,21 130.8,18 126.9,18 C122.4,18 119.4,21 119.4,26.4 L119.4,42 L113.4,42 L113.4,0 L119.4,0 Z M154.74,38.7 C154.74,40.8 152.94,42.6 150.84,42.6 C148.74,42.6 146.94,40.8 146.94,38.7 C146.94,36.6 148.74,34.8 150.84,34.8 C152.94,34.8 154.74,36.6 154.74,38.7 Z" id="path-1"></path>
    </defs>
    <g id="Portfolio-White-Logo" stroke="none" stroke-width="1" fill="none" fill-rule="evenodd">
        <g id="nitish.-+-Path-2-Mask" transform="translate(110.000000, 55.000000)">
            <mask id="mask-2" fill="white">
                <use xlink:href="#path-1"></use>
            </mask>
            <use id="Mask" fill="#3F59FF" xlink:href="#path-1"></use>
            <path d="M6.9,13.2 L6.9,16.2 C6.9,16.2 10.2,12.6 15.6,12.6 C22.5,12.6 27.3,17.4 27.3,25.2 L27.3,42 L21.3,42 L21.3,25.2 C21.3,21 18.3,18 14.4,18 C9.9,18 6.9,21 6.9,26.4 L6.9,42 L0.9,42 L0.9,13.2 L6.9,13.2 Z M41.64,13.2 L41.64,42 L35.64,42 L35.64,13.2 L41.64,13.2 Z M42.24,4.2 C42.24,6.3 40.74,7.8 38.64,7.8 C36.54,7.8 35.04,6.3 35.04,4.2 C35.04,2.1 36.54,0.6 38.64,0.6 C40.74,0.6 42.24,2.1 42.24,4.2 Z M53.58,9.6 L53.58,3.6 L58.98,3.6 L58.98,13.2 L64.98,13.2 L64.98,18.6 L58.98,18.6 L58.98,33.54 C58.98,35.7 60.48,37.2 62.58,37.2 C64.08,37.2 65.58,36.6 65.58,36.6 L65.58,42 C65.58,42 63.78,42.6 61.38,42.6 C55.98,42.6 52.98,39.6 52.98,33.6 L52.98,18.6 L47.58,18.6 L47.58,13.2 L50.58,13.2 C52.38,13.2 53.58,12 53.58,9.6 Z M78.72,13.2 L78.72,42 L72.72,42 L72.72,13.2 L78.72,13.2 Z M79.32,4.2 C79.32,6.3 77.82,7.8 75.72,7.8 C73.62,7.8 72.12,6.3 72.12,4.2 C72.12,2.1 73.62,0.6 75.72,0.6 C77.82,0.6 79.32,2.1 79.32,4.2 Z M105.36,16.5 L101.46,20.4 C101.46,20.4 99.3599999,18 96.0599999,18 C93.3599999,18 91.8599999,19.5 91.8599999,21 C91.8599999,26.4 106.56,23.4 106.56,33.6 C106.56,38.4 102.36,42.6 95.7599999,42.6 C88.2599999,42.6 84.6599999,37.5 84.6599999,37.5 L88.5599999,33.6 C88.5599999,33.6 91.2599999,37.2 95.7599999,37.2 C99.0599999,37.2 100.56,35.7 100.56,33.6 C100.56,28.2 85.8599999,31.2 85.8599999,21 C85.8599999,16.8 90.0599999,12.6 96.0599999,12.6 C102.36,12.6 105.36,16.5 105.36,16.5 Z M119.4,0 L119.4,16.2 C119.4,16.2 122.7,12.6 128.1,12.6 C135,12.6 139.8,17.4 139.8,25.2 L139.8,42 L133.8,42 L133.8,25.2 C133.8,21 130.8,18 126.9,18 C122.4,18 119.4,21 119.4,26.4 L119.4,42 L113.4,42 L113.4,0 L119.4,0 Z M154.74,38.7 C154.74,40.8 152.94,42.6 150.84,42.6 C148.74,42.6 146.94,40.8 146.94,38.7 C146.94,36.6 148.74,34.8 150.84,34.8 C152.94,34.8 154.74,36.6 154.74,38.7 Z" id="nitish." fill="#FFFFFF" mask="url(#mask-2)"></path>
            <polygon id="Path-2" fill="#EFEFEF" mask="url(#mask-2)" points="40.5429688 68.40625 138.949219 -30 220.697266 -30 203.439453 68.40625"></polygon>
        </g>
    </g>
</svg>