<?xml version="1.0" encoding="UTF-8"?>
<svg width="48px" height="80px" viewBox="0 0 48 80" version="1.1" xmlns="http://www.w3.org/2000/svg" xmlns:xlink="http://www.w3.org/1999/xlink">
    <!-- Generator: Sketch 52.5 (67469) - http://www.bohemiancoding.com/sketch -->
    <title>noun_Scroll_2629633</title>
    <desc>Created with Sketch.</desc>
    <g id="Page-1" stroke="none" stroke-width="1" fill="none" fill-rule="evenodd" fill-opacity="0.8">
        <g id="noun_Scroll_2629633" fill="#FFFFFF">
            <path d="M22.53,79.93 C31.86,79.71 42.65,75.72 46.15,66.25 C47.82,61.73 47.15,56.42 47.15,51.7 C47.15,44.3666667 47.15,37.0566667 47.15,29.77 C47.15,24.36 47.56,19.12 45.36,14.02 C39,-0.92 17.88,-3.15 6.64,7.89 C-1.92,16.3 0.78,31.37 0.78,42.22 C0.78,48.53 0.53,54.89 0.78,61.22 C1.24,72.22 12.28,79.48 22.52,79.96 C27.35,80.19 27.34,72.69 22.52,72.46 C15.52,72.13 8.43,67.32 8.28,59.94 C8.19,55.2 8.28,50.46 8.28,45.72 L8.28,28.4 C8.28,25.19 7.86,21.4 8.79,18.33 C12.32,6.54 32.05,4.9 37.84,15.45 C40,19.39 39.72,23.15 39.72,27.45 C39.72,33.3433333 39.72,39.2333333 39.72,45.12 C39.72,50.26 40.05,55.55 39.72,60.69 C39.13,69.07 29.81,72.29 22.57,72.46 C17.71,72.55 17.7,80.05 22.53,79.93 Z" id="Path"></path>
            <path d="M28,33.55 L28,24.55 C28,19.72 20.5,19.71 20.5,24.55 L20.5,33.55 C20.5,38.38 28,38.39 28,33.55 Z" id="Path"></path>
        </g>
    </g>
</svg>