<?xml version="1.0" encoding="UTF-8"?>
<svg width="21px" height="18px" viewBox="0 0 21 18" version="1.1" xmlns="http://www.w3.org/2000/svg" xmlns:xlink="http://www.w3.org/1999/xlink">
    <!-- Generator: Sketch 52.5 (67469) - http://www.bohemiancoding.com/sketch -->
    <title>noun_Structure_556199</title>
    <desc>Created with Sketch.</desc>
    <g id="Page-1" stroke="none" stroke-width="1" fill="none" fill-rule="evenodd">
        <g id="noun_Structure_556199" fill="#FFFFFF">
            <g id="Group">
                <g>
                    <g>
                        <rect id="Rectangle" x="10" y="6.5" width="1" height="7"></rect>
                        <polygon id="Path" points="13 3 19 3 19 13.5 18 13.5 18 4 13 4"></polygon>
                        <polygon id="Path" points="2 3 2 13.5 3 13.5 3 4 8 4 8 3"></polygon>
                        <path d="M10.5,7 C12.4329966,7 14,5.43299662 14,3.5 C14,1.56700338 12.4329966,0 10.5,0 C8.56700338,0 7,1.56700338 7,3.5 C7,5.43299662 8.56700338,7 10.5,7 Z M10.5,6 C11.8807119,6 13,4.88071187 13,3.5 C13,2.11928813 11.8807119,1 10.5,1 C9.11928813,1 8,2.11928813 8,3.5 C8,4.88071187 9.11928813,6 10.5,6 Z" id="Shape" fill-rule="nonzero"></path>
                        <path d="M10.5,18 C11.8807119,18 13,16.8807119 13,15.5 C13,14.1192881 11.8807119,13 10.5,13 C9.11928813,13 8,14.1192881 8,15.5 C8,16.8807119 9.11928813,18 10.5,18 Z M10.5,17 C11.3284271,17 12,16.3284271 12,15.5 C12,14.6715729 11.3284271,14 10.5,14 C9.67157288,14 9,14.6715729 9,15.5 C9,16.3284271 9.67157288,17 10.5,17 Z" id="Shape" fill-rule="nonzero"></path>
                        <path d="M2.5,18 C3.88071187,18 5,16.8807119 5,15.5 C5,14.1192881 3.88071187,13 2.5,13 C1.11928813,13 0,14.1192881 0,15.5 C0,16.8807119 1.11928813,18 2.5,18 Z M2.5,17 C3.32842712,17 4,16.3284271 4,15.5 C4,14.6715729 3.32842712,14 2.5,14 C1.67157288,14 1,14.6715729 1,15.5 C1,16.3284271 1.67157288,17 2.5,17 Z" id="Shape" fill-rule="nonzero"></path>
                        <path d="M18.5,18 C19.8807119,18 21,16.8807119 21,15.5 C21,14.1192881 19.8807119,13 18.5,13 C17.1192881,13 16,14.1192881 16,15.5 C16,16.8807119 17.1192881,18 18.5,18 Z M18.5,17 C19.3284271,17 20,16.3284271 20,15.5 C20,14.6715729 19.3284271,14 18.5,14 C17.6715729,14 17,14.6715729 17,15.5 C17,16.3284271 17.6715729,17 18.5,17 Z" id="Shape" fill-rule="nonzero"></path>
                    </g>
                </g>
            </g>
        </g>
    </g>
</svg>