<?xml version="1.0" encoding="UTF-8"?>
<svg width="90px" height="86px" viewBox="0 0 90 86" version="1.1" xmlns="http://www.w3.org/2000/svg" xmlns:xlink="http://www.w3.org/1999/xlink">
    <!-- Generator: Sketch 52.5 (67469) - http://www.bohemiancoding.com/sketch -->
    <title>user</title>
    <desc>Created with Sketch.</desc>
    <g id="Page-1" stroke="none" stroke-width="1" fill="none" fill-rule="evenodd">
        <g id="user" fill="#FFFFFF" fill-rule="nonzero">
            <path d="M89.82941,77.95581 C90.2395718,79.7004314 89.8271441,81.536799 88.7103568,82.9384847 C87.5935696,84.3401703 85.8957393,85.1523988 84.10358,85.14233 L5.89642,85.14233 C4.10426065,85.1523988 2.40643043,84.3401703 1.28964318,82.9384847 C0.172855931,81.536799 -0.239571757,79.7004314 0.17059,77.95581 C4.34424,61.20038 22.8288,48.57294 45,48.57294 C67.1712,48.57294 85.6557,61.20038 89.82941,77.95581 Z M45,41.85767 C56.3218374,41.85767 65.5,32.6795074 65.5,21.35767 C65.5,10.0358326 56.3218374,0.85767 45,0.85767 C33.6781626,0.85767 24.5,10.0358326 24.5,21.35767 C24.5,32.6795074 33.6781626,41.85767 45,41.85767 Z" id="Shape"></path>
        </g>
    </g>
</svg>