<?xml version="1.0" encoding="UTF-8"?>
<svg width="512px" height="320px" viewBox="0 0 512 320" version="1.1" xmlns="http://www.w3.org/2000/svg" xmlns:xlink="http://www.w3.org/1999/xlink">
    <!-- Generator: Sketch 52.1 (67048) - http://www.bohemiancoding.com/sketch -->
    <title>behance</title>
    <desc>Created with Sketch.</desc>
    <g id="Page-1" stroke="none" stroke-width="1" fill="none" fill-rule="evenodd">
        <g id="behance" transform="translate(0.000000, -10.666667)" fill="#053DFF">
            <path d="M263.744,233.536 C263.744,194.112 244.992,164.970667 206.250667,154.048 C234.517333,140.586667 249.258667,120.192 249.258667,88.4693333 C249.258667,25.92 202.496,10.6666667 148.544,10.6666667 L-8.8817842e-16,10.6666667 L-8.8817842e-16,324.714667 L152.704,324.714667 C209.962667,324.714667 263.744,297.344 263.744,233.536 Z M69.248,64.2773333 L134.229333,64.2773333 C159.210667,64.2773333 181.696,71.2746667 181.696,100.16 C181.696,126.826667 164.202667,137.557333 139.456,137.557333 L69.248,137.557333 L69.248,64.2773333 Z M69.2266667,271.381333 L69.2266667,184.896 L144.704,184.896 C175.189333,184.896 194.474667,197.568 194.474667,229.738667 C194.474667,261.461333 171.456,271.381333 143.274667,271.381333 L69.2266667,271.381333 Z" id="Shape" fill-rule="nonzero"></path>
            <path d="M400.981333,330.666667 C455.466667,330.666667 490.752,306.197333 507.733333,254.186667 L452.437333,254.186667 C446.485333,273.6 421.952,283.861333 402.922667,283.861333 C366.208,283.861333 346.922667,262.421333 346.922667,225.984 L511.466667,225.984 C516.672,153.066667 476.053333,90.9226667 400.96,90.9226667 C331.434667,90.9226667 284.245333,143.018667 284.245333,211.264 C284.245333,282.090667 328.96,330.666667 400.981333,330.666667 Z M399.018667,138.112 C430.485333,138.112 446.314667,156.544 448.96,186.688 L347.008,186.688 C349.077333,156.8 368.981333,138.112 399.018667,138.112 Z" id="Shape" fill-rule="nonzero"></path>
            <polygon id="Path" points="334.229333 27.1573333 461.973333 27.1573333 461.973333 58.0906667 334.229333 58.0906667"></polygon>
        </g>
    </g>
</svg>