<?xml version="1.0" encoding="UTF-8"?>
<svg width="513px" height="406px" viewBox="0 0 513 406" version="1.1" xmlns="http://www.w3.org/2000/svg" xmlns:xlink="http://www.w3.org/1999/xlink">
    <!-- Generator: Sketch 52.1 (67048) - http://www.bohemiancoding.com/sketch -->
    <title>github</title>
    <desc>Created with Sketch.</desc>
    <g id="Page-1" stroke="none" stroke-width="1" fill="none" fill-rule="evenodd">
        <g id="github" transform="translate(0.666667, -0.333333)" fill="#1066D6">
            <path d="M262.52,405.978667 C342.093333,405.978667 453.24,407.898667 493.666667,327.024 C508.92,296.112 512.333333,260.421333 512.333333,226.757333 L512.312,226.757333 C512.312,182.533333 500.045333,140.421333 470.712,106.202667 C487.48,55.792 476.258667,26.0746667 463.352,0.645333333 C415.565333,0.645333333 384.632,9.60533333 348.365333,37.808 C289.784,23.8773333 223.437333,25.6266667 167.992,38.6613333 C131.192,10.16 100.258667,0.666666667 51.9386667,0.666666667 C38.6906667,27.056 27.704,56.112 44.6,106.842667 C-12.488,172.613333 -8.008,268.250667 21.88,327.045333 C63.9066667,408.858667 181.666667,405.978667 262.52,405.978667 Z M149.688,192.858667 C169.954667,192.858667 189.474667,196.442667 209.421333,199.194667 C282.338667,210.288 320.674667,192.858667 365.368,192.858667 C415.266667,192.858667 443.768,233.712 443.768,280.048 C443.768,372.826667 358.114667,386.970667 283.128,386.970667 C231.522667,383.493333 71.288,407.792 71.288,280.048 C71.288,233.712 99.7466667,192.858667 149.688,192.858667 Z" id="Shape" fill-rule="nonzero"></path>
            <path d="M355.64,338.224 C383.16,338.224 394.786667,302.128 394.786667,280.048 C394.786667,257.968 383.16,221.872 355.64,221.872 C328.12,221.872 316.493333,257.968 316.493333,280.048 C316.493333,302.128 328.12,338.224 355.64,338.224 Z" id="Path"></path>
            <path d="M159.693333,338.224 C187.213333,338.224 198.84,302.128 198.84,280.048 C198.84,257.968 187.192,221.893333 159.693333,221.893333 C132.194667,221.893333 120.546667,257.989333 120.546667,280.069333 C120.546667,302.149333 132.173333,338.224 159.693333,338.224 Z" id="Path"></path>
        </g>
    </g>
</svg>