<?xml version="1.0" encoding="UTF-8"?>
<svg width="512px" height="433px" viewBox="0 0 512 433" version="1.1" xmlns="http://www.w3.org/2000/svg" xmlns:xlink="http://www.w3.org/1999/xlink">
    <!-- Generator: Sketch 52.1 (67048) - http://www.bohemiancoding.com/sketch -->
    <title>medium</title>
    <desc>Created with Sketch.</desc>
    <g id="Page-1" stroke="none" stroke-width="1" fill="none" fill-rule="evenodd">
        <g id="medium" transform="translate(0.000000, -18.666667)" fill="#000000" fill-rule="nonzero">
            <path d="M170.581333,433.578667 C170.581333,448.405333 159.466667,454.528 147.157333,448.405333 L14.2933333,381.994667 C10.2826667,380.096 6.912,376.917333 4.16,372.458667 C1.408,368 0,363.562667 0,359.189333 L0,34.3466667 C0,22.2293333 7.27466667,16.7466667 23.7226667,24.9386667 L169.728,97.8986667 C171.84,100.010667 170.282667,85.504 170.581333,433.578667 Z M188.864,128.085333 L341.44,374.869333 L188.864,299.072 L188.864,128.085333 Z M512,133.226667 L512,433.578667 C512,438.336 510.677333,442.176 507.989333,445.12 C505.322667,448.064 501.696,449.536 497.130667,449.536 C492.565333,449.536 488.085333,448.298667 483.712,445.824 L357.717333,383.125333 L512,133.226667 Z M511.146667,99.0293333 C511.146667,99.6053333 486.72,139.456 437.866667,218.56 C389.013333,297.664 360.384,344 352,357.482667 L240.576,176.810667 L333.141333,26.6453333 C338.176,18.368 348.501333,16.9173333 355.434667,20.3733333 L510.016,97.3226667 C510.762667,97.6853333 511.146667,98.2613333 511.146667,99.0293333 Z" id="Shape"></path>
        </g>
    </g>
</svg>